<?xml version="1.0" standalone="no"?>
<!DOCTYPE svg PUBLIC "-//W3C//DTD SVG 1.1//EN" "http://www.w3.org/Graphics/SVG/1.1/DTD/svg11.dtd">
<svg width="323mm" height="353mm" viewBox="-38 -353 323 353" xmlns="http://www.w3.org/2000/svg" version="1.1">
<title>OpenSCAD Model</title>
<path d="
M 256.047,-0.0182648 L 257.093,-0.0730743 L 258.136,-0.164337 L 259.175,-0.291946 L 260.209,-0.455765 L 261.237,-0.655563
 L 262.258,-0.891113 L 263.269,-1.16214 L 264.271,-1.46829 L 265.261,-1.80922 L 266.238,-2.18448 L 267.202,-2.59363
 L 268.151,-3.03618 L 269.084,-3.51157 L 270,-4.01923 L 270.898,-4.55855 L 271.776,-5.12886 L 272.634,-5.72948
 L 273.47,-6.35966 L 274.284,-7.01866 L 275.074,-7.70564 L 275.84,-8.4198 L 276.58,-9.16025 L 277.294,-9.92607
 L 277.981,-10.7164 L 278.64,-11.5302 L 279.271,-12.3664 L 279.871,-13.2242 L 280.441,-14.1024 L 280.981,-15
 L 281.488,-15.9158 L 281.964,-16.8489 L 282.406,-17.7979 L 282.816,-18.7618 L 283.191,-19.7394 L 283.532,-20.7295
 L 283.838,-21.7309 L 284.109,-22.7423 L 284.344,-23.7626 L 284.544,-24.7905 L 284.708,-25.8248 L 284.836,-26.8641
 L 284.927,-27.9073 L 284.982,-28.953 L 285,-30 L 285,-273 L 284.976,-274.396 L 284.903,-275.79
 L 284.781,-277.181 L 284.611,-278.567 L 284.392,-279.946 L 284.126,-281.316 L 283.812,-282.677 L 283.45,-284.025
 L 283.042,-285.361 L 282.588,-286.681 L 282.087,-287.984 L 281.542,-289.269 L 280.952,-290.535 L 280.318,-291.779
 L 279.641,-293 L 278.922,-294.197 L 278.161,-295.368 L 277.361,-296.511 L 276.52,-297.626 L 275.642,-298.712
 L 274.726,-299.765 L 273.774,-300.786 L 272.786,-301.774 L 271.765,-302.726 L 270.712,-303.642 L 269.626,-304.52
 L 268.511,-305.361 L 267.368,-306.161 L 266.197,-306.922 L 265,-307.641 L 263.779,-308.318 L 262.535,-308.952
 L 261.269,-309.542 L 259.984,-310.087 L 258.681,-310.588 L 257.361,-311.042 L 135.861,-351.042 L 134.525,-351.45
 L 133.177,-351.812 L 131.816,-352.126 L 130.446,-352.392 L 129.067,-352.611 L 127.681,-352.781 L 126.29,-352.903
 L 124.896,-352.976 L 123.5,-353 L 122.104,-352.976 L 120.71,-352.903 L 119.319,-352.781 L 117.933,-352.611
 L 116.554,-352.392 L 115.184,-352.126 L 113.823,-351.812 L 112.475,-351.45 L 111.139,-351.042 L -10.3607,-311.042
 L -11.6808,-310.588 L -12.9843,-310.087 L -14.2695,-309.542 L -15.5348,-308.952 L -16.7789,-308.318 L -18,-307.641
 L -19.1968,-306.922 L -20.3677,-306.161 L -21.5114,-305.361 L -22.6264,-304.52 L -23.7115,-303.642 L -24.7652,-302.726
 L -25.7863,-301.774 L -26.7736,-300.786 L -27.7258,-299.765 L -28.6418,-298.712 L -29.5204,-297.626 L -30.3607,-296.511
 L -31.1615,-295.368 L -31.9219,-294.197 L -32.641,-293 L -33.3179,-291.779 L -33.9518,-290.535 L -34.5418,-289.269
 L -35.0873,-287.984 L -35.5877,-286.681 L -36.0423,-285.361 L -36.4505,-284.025 L -36.8118,-282.677 L -37.1259,-281.316
 L -37.3923,-279.946 L -37.6107,-278.567 L -37.7809,-277.181 L -37.9026,-275.79 L -37.9756,-274.396 L -38,-273
 L -38,-30 L -37.9817,-28.953 L -37.9269,-27.9073 L -37.8356,-26.8641 L -37.708,-25.8248 L -37.5442,-24.7905
 L -37.3444,-23.7626 L -37.1089,-22.7423 L -36.8378,-21.7309 L -36.5317,-20.7295 L -36.1908,-19.7394 L -35.8155,-18.7618
 L -35.4064,-17.7979 L -34.9638,-16.8489 L -34.4884,-15.9158 L -33.9808,-15 L -33.4414,-14.1024 L -32.8711,-13.2242
 L -32.2705,-12.3664 L -31.6403,-11.5302 L -30.9813,-10.7164 L -30.2943,-9.92607 L -29.5802,-9.16025 L -28.8397,-8.4198
 L -28.0739,-7.70564 L -27.2836,-7.01866 L -26.4698,-6.35966 L -25.6335,-5.72948 L -24.7758,-5.12886 L -23.8976,-4.55855
 L -23,-4.01923 L -22.0841,-3.51157 L -21.1511,-3.03618 L -20.2021,-2.59363 L -19.2382,-2.18448 L -18.2606,-1.80922
 L -17.2705,-1.46829 L -16.2691,-1.16214 L -15.2576,-0.891113 L -14.2374,-0.655563 L -13.2094,-0.455765 L -12.1752,-0.291946
 L -11.1358,-0.164337 L -10.0927,-0.0730743 L -9.04698,-0.0182648 L -8,-0 L 255,-0 z
M 30,-89 L 28.953,-89.0183 L 27.9073,-89.0731 L 26.8641,-89.1643 L 25.8248,-89.2919 L 24.7905,-89.4558
 L 23.7626,-89.6556 L 22.7423,-89.8911 L 21.7309,-90.1621 L 20.7295,-90.4683 L 19.7394,-90.8092 L 18.7618,-91.1845
 L 17.7979,-91.5936 L 16.8489,-92.0362 L 15.9158,-92.5116 L 15,-93.0192 L 14.1024,-93.5585 L 13.2242,-94.1289
 L 12.3664,-94.7295 L 11.5302,-95.3597 L 10.7164,-96.0187 L 9.92607,-96.7056 L 9.16025,-97.4198 L 8.4198,-98.1602
 L 7.70564,-98.9261 L 7.01866,-99.7164 L 6.35966,-100.53 L 5.72948,-101.366 L 5.12886,-102.224 L 4.55855,-103.102
 L 4.01923,-104 L 3.51157,-104.916 L 3.03618,-105.849 L 2.59363,-106.798 L 2.18448,-107.762 L 1.80922,-108.739
 L 1.46829,-109.729 L 1.16214,-110.731 L 0.891113,-111.742 L 0.655563,-112.763 L 0.455765,-113.791 L 0.291946,-114.825
 L 0.164337,-115.864 L 0.0730743,-116.907 L 0.0182648,-117.953 L 0,-119 L 0,-233 L 0.024353,-234.396
 L 0.0974274,-235.79 L 0.219116,-237.181 L 0.389267,-238.567 L 0.607681,-239.946 L 0.874084,-241.316 L 1.18816,-242.677
 L 1.54953,-244.025 L 1.95773,-245.361 L 2.41229,-246.681 L 2.91264,-247.984 L 3.45818,-249.269 L 4.04823,-250.535
 L 4.68208,-251.779 L 5.35898,-253 L 6.07806,-254.197 L 6.83849,-255.368 L 7.63931,-256.511 L 8.47957,-257.626
 L 9.35822,-258.712 L 10.2742,-259.765 L 11.2264,-260.786 L 12.2137,-261.774 L 13.2348,-262.726 L 14.2885,-263.642
 L 15.3735,-264.52 L 16.4886,-265.361 L 17.6323,-266.161 L 18.8032,-266.922 L 20,-267.641 L 21.2211,-268.318
 L 22.4651,-268.952 L 23.7305,-269.542 L 25.0157,-270.087 L 26.3192,-270.588 L 27.6393,-271.042 L 28.9745,-271.45
 L 30.3231,-271.812 L 31.6835,-272.126 L 33.0541,-272.392 L 34.4331,-272.611 L 35.8188,-272.781 L 37.2097,-272.903
 L 38.604,-272.976 L 40,-273 L 207,-273 L 208.396,-272.976 L 209.79,-272.903 L 211.181,-272.781
 L 212.567,-272.611 L 213.946,-272.392 L 215.316,-272.126 L 216.677,-271.812 L 218.025,-271.45 L 219.361,-271.042
 L 220.681,-270.588 L 221.984,-270.087 L 223.269,-269.542 L 224.535,-268.952 L 225.779,-268.318 L 227,-267.641
 L 228.197,-266.922 L 229.368,-266.161 L 230.511,-265.361 L 231.626,-264.52 L 232.712,-263.642 L 233.765,-262.726
 L 234.786,-261.774 L 235.774,-260.786 L 236.726,-259.765 L 237.642,-258.712 L 238.52,-257.626 L 239.361,-256.511
 L 240.161,-255.368 L 240.922,-254.197 L 241.641,-253 L 242.318,-251.779 L 242.952,-250.535 L 243.542,-249.269
 L 244.087,-247.984 L 244.588,-246.681 L 245.042,-245.361 L 245.45,-244.025 L 245.812,-242.677 L 246.126,-241.316
 L 246.392,-239.946 L 246.611,-238.567 L 246.781,-237.181 L 246.903,-235.79 L 246.976,-234.396 L 247,-233
 L 247,-119 L 246.982,-117.953 L 246.927,-116.907 L 246.836,-115.864 L 246.708,-114.825 L 246.544,-113.791
 L 246.344,-112.763 L 246.109,-111.742 L 245.838,-110.731 L 245.532,-109.729 L 245.191,-108.739 L 244.816,-107.762
 L 244.406,-106.798 L 243.964,-105.849 L 243.488,-104.916 L 242.981,-104 L 242.441,-103.102 L 241.871,-102.224
 L 241.271,-101.366 L 240.64,-100.53 L 239.981,-99.7164 L 239.294,-98.9261 L 238.58,-98.1602 L 237.84,-97.4198
 L 237.074,-96.7056 L 236.284,-96.0187 L 235.47,-95.3597 L 234.634,-94.7295 L 233.776,-94.1289 L 232.898,-93.5585
 L 232,-93.0192 L 231.084,-92.5116 L 230.151,-92.0362 L 229.202,-91.5936 L 228.238,-91.1845 L 227.261,-90.8092
 L 226.271,-90.4683 L 225.269,-90.1621 L 224.258,-89.8911 L 223.237,-89.6556 L 222.209,-89.4558 L 221.175,-89.2919
 L 220.136,-89.1643 L 219.093,-89.0731 L 218.047,-89.0183 L 217,-89 z
" stroke="black" fill="lightgray" stroke-width="0.5"/>
</svg>
