<?xml version="1.0" encoding="UTF-8" standalone="no"?>
<svg
   width="323mm"
   height="353mm"
   viewBox="-38 -353 323 353"
   version="1.1"
   id="svg1"
   sodipodi:docname="cat-facade-split-b.svg"
   inkscape:version="1.3 (0e150ed6c4, 2023-07-21)"
   xmlns:inkscape="http://www.inkscape.org/namespaces/inkscape"
   xmlns:sodipodi="http://sodipodi.sourceforge.net/DTD/sodipodi-0.dtd"
   xmlns="http://www.w3.org/2000/svg"
   xmlns:svg="http://www.w3.org/2000/svg"
   xmlns:rdf="http://www.w3.org/1999/02/22-rdf-syntax-ns#"
   xmlns:cc="http://creativecommons.org/ns#"
   xmlns:dc="http://purl.org/dc/elements/1.1/">
  <defs
     id="defs1">
    <inkscape:path-effect
       effect="slice"
       start_point="367.02084,-124.64167"
       end_point="-87.2125,-124.64167"
       center_point="139.90417,-124.64167"
       id="path-effect1"
       is_visible="true"
       lpeversion="1.2"
       lpesatellites="#path2"
       allow_transforms="true" />
  </defs>
  <sodipodi:namedview
     id="namedview1"
     pagecolor="#ffffff"
     bordercolor="#666666"
     borderopacity="1.0"
     inkscape:showpageshadow="2"
     inkscape:pageopacity="0.0"
     inkscape:pagecheckerboard="0"
     inkscape:deskcolor="#d1d1d1"
     inkscape:document-units="mm"
     inkscape:zoom="0.5"
     inkscape:cx="611"
     inkscape:cy="666"
     inkscape:window-width="2114"
     inkscape:window-height="996"
     inkscape:window-x="554"
     inkscape:window-y="128"
     inkscape:window-maximized="0"
     inkscape:current-layer="svg1" />
  <title
     id="title1">OpenSCAD Model</title>
  <path
     d="M 285,-124.64167 V -273 l -0.0234,-1.39648 -0.0742,-1.39258 -0.12109,-1.39258 -0.16992,-1.38477 -0.21875,-1.3789 -0.26563,-1.3711 -0.31445,-1.36132 -0.36328,-1.34766 -0.40625,-1.33594 -0.45508,-1.32031 -0.5,-1.30273 -0.54492,-1.28516 -0.5918,-1.26563 -0.63281,-1.24414 -0.67774,-1.2207 -0.71875,-1.19727 -0.76171,-1.16992 -0.79883,-1.14453 -0.8418,-1.11523 -0.87695,-1.08594 -0.91602,-1.05273 -0.95312,-1.01954 -0.98828,-0.98828 -1.01954,-0.95312 -1.05273,-0.91602 -1.08594,-0.87695 -1.11523,-0.8418 -1.14453,-0.79883 -1.16992,-0.76171 -1.19727,-0.71875 -1.2207,-0.67774 -1.24414,-0.63281 -1.26563,-0.5918 -1.28516,-0.54492 -1.30273,-0.5 -1.32031,-0.45508 -121.5,-40 -1.33594,-0.40625 -1.34766,-0.36328 -1.36132,-0.31445 -1.3711,-0.26563 -1.3789,-0.21875 -1.38477,-0.16992 -1.39258,-0.12109 -1.39258,-0.0742 L 123.5,-353 l -1.39648,0.0234 -1.39258,0.0742 -1.39258,0.12109 -1.38477,0.16992 -1.3789,0.21875 -1.3711,0.26563 -1.36132,0.31445 -1.34766,0.36328 -1.33594,0.40625 -121.499998,40 -1.320313,0.45508 -1.302734,0.5 -1.285156,0.54492 -1.265625,0.5918 -1.244141,0.63281 -1.220703,0.67774 -1.197266,0.71875 -1.169921,0.76171 -1.144532,0.79883 -1.115234,0.8418 -1.083984,0.87695 -1.054688,0.91602 -1.021484,0.95312 -0.986328,0.98828 -0.953125,1.01954 -0.916016,1.05273 -0.876953,1.08594 -0.841797,1.11523 -0.800781,1.14453 -0.759766,1.16992 -0.71875,1.19727 -0.677734,1.2207 -0.632813,1.24414 -0.589844,1.26563 -0.546875,1.28516 -0.5,1.30273 -0.455078,1.32031 -0.408203,1.33594 -0.361328,1.34766 -0.3125,1.36132 -0.267578,1.3711 -0.21875,1.3789 -0.169922,1.38477 -0.121094,1.39258 -0.07422,1.39258 L -38,-273 v 148.35833 z m -285,0 V -233 l 0.0234375,-1.39648 0.07421875,-1.39258 0.12109375,-1.39258 0.16992188,-1.38477 0.21874999,-1.3789 0.26757813,-1.3711 0.3125,-1.36132 0.3613281,-1.34766 0.4082031,-1.33594 0.4550782,-1.32031 0.5,-1.30273 0.546875,-1.28516 0.5898437,-1.26563 0.6328125,-1.24414 0.6777344,-1.2207 0.71875,-1.19727 0.7597656,-1.16992 0.8007813,-1.14453 0.8417969,-1.11523 0.8769531,-1.08594 0.9160161,-1.05273 0.953125,-1.01954 0.986328,-0.98828 1.021484,-0.95312 1.054688,-0.91602 1.083984,-0.87695 1.115234,-0.8418 1.144531,-0.79883 1.169922,-0.76171 1.197266,-0.71875 1.220703,-0.67774 1.244141,-0.63281 1.265625,-0.5918 1.285156,-0.54492 1.302734,-0.5 1.320313,-0.45508 1.335937,-0.40625 1.347657,-0.36328 1.361328,-0.31445 1.371093,-0.26563 1.378907,-0.21875 1.384765,-0.16992 1.390625,-0.12109 1.394532,-0.0742 L 40,-273 h 167 l 1.39648,0.0234 1.39258,0.0742 1.39258,0.12109 1.38477,0.16992 1.3789,0.21875 1.3711,0.26563 1.36132,0.31445 1.34766,0.36328 1.33594,0.40625 1.32031,0.45508 1.30273,0.5 1.28516,0.54492 1.26563,0.5918 1.24414,0.63281 1.2207,0.67774 1.19727,0.71875 1.16992,0.76171 1.14453,0.79883 1.11523,0.8418 1.08594,0.87695 1.05273,0.91602 1.01954,0.95312 0.98828,0.98828 0.95312,1.01954 0.91602,1.05273 0.87695,1.08594 0.8418,1.11523 0.79883,1.14453 0.76171,1.16992 0.71875,1.19727 0.67774,1.2207 0.63281,1.24414 0.5918,1.26563 0.54492,1.28516 0.5,1.30273 0.45508,1.32031 0.40625,1.33594 0.36328,1.34766 0.31445,1.36132 0.26563,1.3711 0.21875,1.3789 0.16992,1.38477 0.12109,1.39258 0.0742,1.39258 L 247,-233 v 108.35833 z"
     stroke="#000000"
     fill="#d3d3d3"
     stroke-width="0.5"
     id="path1"
     inkscape:path-effect="#path-effect1"
     inkscape:original-d="m 256.047,-0.0182648 1.046,-0.0548095 1.043,-0.0912627 1.039,-0.127609 1.034,-0.163819 1.028,-0.199798 1.021,-0.23555 1.011,-0.271027 1.002,-0.30615 0.99,-0.34093 0.977,-0.37526 0.964,-0.40915 0.949,-0.44255 0.933,-0.47539 0.916,-0.50766 0.898,-0.53932 0.878,-0.57031 0.858,-0.60062 0.836,-0.63018 0.814,-0.659 0.79,-0.68698 0.766,-0.71416 0.74,-0.74045 0.714,-0.76582 0.687,-0.79033 0.659,-0.8138 0.631,-0.8362 0.6,-0.8578 0.57,-0.8782 0.54,-0.8976 0.507,-0.9158 0.476,-0.9331 0.442,-0.949 0.41,-0.9639 0.375,-0.9776 0.341,-0.9901 0.306,-1.0014 0.271,-1.0114 0.235,-1.0203 0.2,-1.0279 0.164,-1.0343 0.128,-1.0393 0.091,-1.0432 0.055,-1.0457 L 285,-30 v -243 l -0.024,-1.396 -0.073,-1.394 -0.122,-1.391 -0.17,-1.386 -0.219,-1.379 -0.266,-1.37 -0.314,-1.361 -0.362,-1.348 -0.408,-1.336 -0.454,-1.32 -0.501,-1.303 -0.545,-1.285 -0.59,-1.266 -0.634,-1.244 -0.677,-1.221 -0.719,-1.197 -0.761,-1.171 -0.8,-1.143 -0.841,-1.115 -0.878,-1.086 -0.916,-1.053 -0.952,-1.021 -0.988,-0.988 -1.021,-0.952 -1.053,-0.916 -1.086,-0.878 -1.115,-0.841 -1.143,-0.8 -1.171,-0.761 -1.197,-0.719 -1.221,-0.677 -1.244,-0.634 -1.266,-0.59 -1.285,-0.545 -1.303,-0.501 -1.32,-0.454 -121.5,-40 -1.336,-0.408 -1.348,-0.362 -1.361,-0.314 -1.37,-0.266 -1.379,-0.219 -1.386,-0.17 -1.391,-0.122 -1.394,-0.073 -1.396,-0.024 -1.396,0.024 -1.394,0.073 -1.391,0.122 -1.386,0.17 -1.379,0.219 -1.37,0.266 -1.361,0.314 -1.348,0.362 -1.336,0.408 -121.4997,40 -1.3201,0.454 -1.3035,0.501 -1.2852,0.545 -1.2653,0.59 -1.2441,0.634 -1.2211,0.677 -1.1968,0.719 -1.1709,0.761 -1.1437,0.8 -1.115,0.841 -1.0851,0.878 -1.0537,0.916 -1.0211,0.952 -0.9873,0.988 -0.9522,1.021 -0.916,1.053 -0.8786,1.086 -0.8403,1.115 -0.8008,1.143 -0.7604,1.171 -0.7191,1.197 -0.6769,1.221 -0.6339,1.244 -0.59,1.266 -0.5455,1.285 -0.5004,1.303 -0.4546,1.32 -0.4082,1.336 -0.3613,1.348 -0.3141,1.361 -0.2664,1.37 -0.2184,1.379 -0.1702,1.386 -0.1217,1.391 -0.073,1.394 L -38,-273 v 243 l 0.0183,1.047 0.0548,1.0457 0.0913,1.0432 0.1276,1.0393 0.1638,1.0343 0.1998,1.0279 0.2355,1.0203 0.2711,1.0114 0.3061,1.0014 0.3409,0.9901 0.3753,0.9776 0.4091,0.9639 0.4426,0.949 0.4754,0.9331 0.5076,0.9158 0.5394,0.8976 0.5703,0.8782 0.6006,0.8578 0.6302,0.8362 0.659,0.8138 0.687,0.79033 0.7141,0.76582 0.7405,0.74045 0.7658,0.71416 0.7903,0.68698 0.8138,0.659 0.8363,0.63018 0.8577,0.60062 0.8782,0.57031 0.8976,0.53932 0.9159,0.50766 0.933,0.47539 0.949,0.44255 0.9639,0.40915 0.9776,0.37526 0.9901,0.34093 1.0014,0.30615 1.0115,0.271027 1.0202,0.23555 1.028,0.199798 1.0342,0.163819 1.0394,0.127609 1.0431,0.0912627 1.04572,0.0548095 L -8,0 H 255 Z M 30,-89 l -1.047,-0.0183 -1.0457,-0.0548 -1.0432,-0.0912 -1.0393,-0.1276 -1.0343,-0.1639 -1.0279,-0.1998 -1.0203,-0.2355 -1.0114,-0.271 -1.0014,-0.3062 -0.9901,-0.3409 -0.9776,-0.3753 -0.9639,-0.4091 -0.949,-0.4426 -0.9331,-0.4754 -0.9158,-0.5076 -0.8976,-0.5393 -0.8782,-0.5704 -0.8578,-0.6006 -0.8362,-0.6302 -0.8138,-0.659 -0.79033,-0.6869 -0.76582,-0.7142 -0.74045,-0.7404 -0.71416,-0.7659 -0.68698,-0.7903 -0.659,-0.8136 -0.63018,-0.836 -0.60062,-0.858 -0.57031,-0.878 -0.53932,-0.898 -0.50766,-0.916 -0.47539,-0.933 -0.44255,-0.949 -0.40915,-0.964 -0.37526,-0.977 -0.34093,-0.99 -0.30615,-1.002 -0.271027,-1.011 -0.23555,-1.021 -0.199798,-1.028 -0.163819,-1.034 -0.127609,-1.039 -0.0912627,-1.043 -0.0548095,-1.046 L 0,-119 v -114 l 0.024353,-1.396 0.0730744,-1.394 0.1216886,-1.391 0.170151,-1.386 0.218414,-1.379 0.266403,-1.37 0.314076,-1.361 0.36137,-1.348 0.4082,-1.336 0.45456,-1.32 0.50035,-1.303 0.54554,-1.285 0.59005,-1.266 0.63385,-1.244 0.6769,-1.221 0.71908,-1.197 0.76043,-1.171 0.80082,-1.143 0.84026,-1.115 0.87865,-1.086 0.91598,-1.053 0.9522,-1.021 0.9873,-0.988 1.0211,-0.952 1.0537,-0.916 1.085,-0.878 1.1151,-0.841 1.1437,-0.8 1.1709,-0.761 1.1968,-0.719 1.2211,-0.677 1.244,-0.634 1.2654,-0.59 1.2852,-0.545 1.3035,-0.501 1.3201,-0.454 1.3352,-0.408 1.3486,-0.362 1.3604,-0.314 1.3706,-0.266 1.379,-0.219 1.3857,-0.17 1.3909,-0.122 1.3943,-0.073 L 40,-273 h 167 l 1.396,0.024 1.394,0.073 1.391,0.122 1.386,0.17 1.379,0.219 1.37,0.266 1.361,0.314 1.348,0.362 1.336,0.408 1.32,0.454 1.303,0.501 1.285,0.545 1.266,0.59 1.244,0.634 1.221,0.677 1.197,0.719 1.171,0.761 1.143,0.8 1.115,0.841 1.086,0.878 1.053,0.916 1.021,0.952 0.988,0.988 0.952,1.021 0.916,1.053 0.878,1.086 0.841,1.115 0.8,1.143 0.761,1.171 0.719,1.197 0.677,1.221 0.634,1.244 0.59,1.266 0.545,1.285 0.501,1.303 0.454,1.32 0.408,1.336 0.362,1.348 0.314,1.361 0.266,1.37 0.219,1.379 0.17,1.386 0.122,1.391 0.073,1.394 L 247,-233 v 114 l -0.018,1.047 -0.055,1.046 -0.091,1.043 -0.128,1.039 -0.164,1.034 -0.2,1.028 -0.235,1.021 -0.271,1.011 -0.306,1.002 -0.341,0.99 -0.375,0.977 -0.41,0.964 -0.442,0.949 -0.476,0.933 -0.507,0.916 -0.54,0.898 -0.57,0.878 -0.6,0.858 -0.631,0.836 -0.659,0.8136 -0.687,0.7903 -0.714,0.7659 -0.74,0.7404 -0.766,0.7142 -0.79,0.6869 -0.814,0.659 -0.836,0.6302 -0.858,0.6006 -0.878,0.5704 -0.898,0.5393 -0.916,0.5076 -0.933,0.4754 -0.949,0.4426 -0.964,0.4091 -0.977,0.3753 -0.99,0.3409 -1.002,0.3062 -1.011,0.271 -1.021,0.2355 -1.028,0.1998 -1.034,0.1639 -1.039,0.1276 -1.043,0.0912 -1.046,0.0548 L 217,-89 Z"
     style="display:inline" />
  <path
     id="path2"
     d="M -38,-124.64167 V -30 l 0.01758,1.046875 0.05469,1.044922 0.0918,1.044922 0.128906,1.039062 0.162109,1.033203 0.201172,1.029297 0.234375,1.019532 0.271484,1.011718 0.306641,1 0.339844,0.990235 0.375,0.978515 0.410156,0.962891 0.443359,0.949219 0.47461,0.933593 0.507812,0.916016 0.539063,0.898437 0.570312,0.876954 0.601563,0.857421 0.628906,0.837891 0.660156,0.8125 0.685547,0.7910157 0.714844,0.765625 0.740234,0.7402344 0.765625,0.7148438 0.791016,0.6855469 0.8125,0.6601562 0.837891,0.6308594 0.857421,0.5996094 0.876954,0.5703125 0.898437,0.5390625 0.916016,0.5078124 0.933593,0.4746094 0.949219,0.4433594 0.962891,0.4101562 0.978515,0.3750001 0.990235,0.3398437 1,0.3066406 1.011718,0.2714844 1.019532,0.234375 1.029297,0.20117187 1.033203,0.1640625 1.039062,0.12695313 1.044922,0.09179688 1.044922,0.05468749 L -8,0 h 263 l 1.04687,-0.01757813 1.04688,-0.05468749 1.04297,-0.09179688 1.03906,-0.12695313 1.0332,-0.1640625 1.02735,-0.20117187 1.02148,-0.234375 1.01172,-0.2714844 1.00195,-0.3066406 0.99024,-0.3398437 0.97656,-0.3750001 0.96289,-0.4101562 0.94922,-0.4433594 0.93359,-0.4746094 0.91602,-0.5078124 0.89844,-0.5390625 0.87695,-0.5703125 0.85938,-0.5996094 0.83593,-0.6308594 0.8125,-0.6601562 0.79102,-0.6855469 0.76562,-0.7148438 0.74024,-0.7402344 0.71484,-0.765625 0.68555,-0.7910157 0.66015,-0.8125 0.63086,-0.837891 0.59961,-0.857421 0.57032,-0.876954 0.53906,-0.898437 0.50781,-0.916016 0.47656,-0.933593 0.44141,-0.949219 0.41016,-0.962891 0.375,-0.978515 0.33984,-0.990235 0.30664,-1 0.27148,-1.011718 0.23438,-1.019532 0.20117,-1.029297 0.16211,-1.033203 0.12891,-1.039062 0.0918,-1.044922 0.0547,-1.044922 L 285,-30 v -94.64167 z m 285,0 V -119 l -0.0176,1.04687 -0.0547,1.04688 -0.0918,1.04297 -0.12891,1.03906 -0.16211,1.0332 -0.20117,1.02735 -0.23438,1.02148 -0.27148,1.01172 -0.30664,1.00195 -0.33984,0.99024 -0.375,0.97656 -0.41016,0.96289 -0.44141,0.94922 -0.47656,0.93359 -0.50781,0.91602 -0.53906,0.89844 -0.57032,0.87695 -0.59961,0.85938 -0.63086,0.83593 -0.66015,0.812503 -0.68555,0.791016 -0.71484,0.765625 -0.74024,0.740234 -0.76562,0.714844 -0.79102,0.685547 -0.8125,0.660156 -0.83593,0.628906 -0.85938,0.601563 -0.87695,0.570312 -0.89844,0.539063 -0.91602,0.507812 -0.93359,0.47461 -0.94922,0.443359 -0.96289,0.410156 -0.97656,0.375 -0.99024,0.339844 -1.00195,0.306641 -1.01172,0.271484 -1.02148,0.234375 -1.02735,0.201172 -1.0332,0.164062 -1.03906,0.126954 -1.04297,0.0918 -1.04688,0.05469 L 217,-89 H 30 l -1.046875,-0.01758 -1.044922,-0.05469 -1.044922,-0.0918 -1.039062,-0.126954 -1.033203,-0.164062 -1.029297,-0.201172 -1.019532,-0.234375 -1.011718,-0.271484 -1,-0.306641 -0.990235,-0.339844 -0.978515,-0.375 -0.962891,-0.410156 -0.949219,-0.443359 -0.933593,-0.47461 L 15,-93.019531 l -0.898437,-0.539063 -0.876954,-0.570312 -0.857421,-0.601563 -0.837891,-0.628906 -0.8125,-0.660156 -0.7910157,-0.685547 -0.765625,-0.714844 -0.7402344,-0.740234 -0.7148438,-0.765625 -0.6855469,-0.791016 -0.6601562,-0.812503 -0.6308594,-0.83593 -0.5996094,-0.85938 -0.5703125,-0.87695 L 4.0195312,-104 l -0.5078124,-0.91602 -0.4746094,-0.93359 -0.4433594,-0.94922 -0.4101562,-0.96289 -0.3750001,-0.97656 -0.3398437,-0.99024 -0.3066406,-1.00195 -0.2714844,-1.01172 -0.234375,-1.02148 -0.20117187,-1.02735 -0.1640625,-1.0332 -0.12695313,-1.03906 -0.09179688,-1.04297 -0.05468749,-1.04688 L 0,-119 v -5.64167 z"
     fill="#d3d3d3"
     stroke="#000000"
     stroke-width="0.5"
     style="display:inline;fill:#0000ff;stroke:#00ff00" />
  <metadata
     id="metadata2">
    <rdf:RDF>
      <cc:Work
         rdf:about="">
        <dc:title>OpenSCAD Model</dc:title>
      </cc:Work>
    </rdf:RDF>
  </metadata>
</svg>
