<?xml version="1.0" encoding="UTF-8" standalone="no"?>
<svg
   width="71mm"
   height="70mm"
   viewBox="88 -348 71 70"
   version="1.1"
   id="svg1"
   sodipodi:docname="cat-circle-with-engraving-tangs.svg"
   inkscape:version="1.3 (0e150ed6c4, 2023-07-21)"
   xmlns:inkscape="http://www.inkscape.org/namespaces/inkscape"
   xmlns:sodipodi="http://sodipodi.sourceforge.net/DTD/sodipodi-0.dtd"
   xmlns="http://www.w3.org/2000/svg"
   xmlns:svg="http://www.w3.org/2000/svg"
   xmlns:rdf="http://www.w3.org/1999/02/22-rdf-syntax-ns#"
   xmlns:cc="http://creativecommons.org/ns#"
   xmlns:dc="http://purl.org/dc/elements/1.1/">
  <defs
     id="defs1" />
  <sodipodi:namedview
     id="namedview1"
     pagecolor="#ffffff"
     bordercolor="#666666"
     borderopacity="1.0"
     inkscape:showpageshadow="2"
     inkscape:pageopacity="0.0"
     inkscape:pagecheckerboard="0"
     inkscape:deskcolor="#d1d1d1"
     inkscape:document-units="mm"
     inkscape:zoom="2.49"
     inkscape:cx="134.33735"
     inkscape:cy="167.26908"
     inkscape:window-width="2004"
     inkscape:window-height="1249"
     inkscape:window-x="683"
     inkscape:window-y="22"
     inkscape:window-maximized="0"
     inkscape:current-layer="svg1" />
  <title
     id="title1">OpenSCAD Model</title>
  <path
     style="display:inline;fill:#999999;stroke:#1a1a1a;stroke-width:0.0570222"
     d="m 122.07081,-278.30134 c -0.23522,-0.009 -0.91442,-0.0574 -1.50933,-0.10689 -7.19904,-0.59885 -14.06769,-3.47062 -19.65217,-8.21653 -0.83718,-0.71148 -3.065037,-2.93933 -3.776508,-3.77651 -4.291074,-5.04927 -7.041585,-11.10002 -7.986768,-17.5698 -0.273399,-1.87142 -0.340102,-2.84431 -0.342034,-4.98875 -0.0018,-2.02575 0.03848,-2.72016 0.25819,-4.44773 1.189515,-9.3533 6.138297,-17.80734 13.73509,-23.46375 3.61963,-2.6951 7.82786,-4.69176 12.20276,-5.78979 3.12079,-0.78326 5.94273,-1.10088 9.2091,-1.03651 2.2319,0.044 4.25069,0.26226 6.24394,0.67513 11.87286,2.45925 21.4977,10.76175 25.67205,22.145 1.00311,2.73545 1.6401,5.58099 1.96578,8.78143 0.1231,1.20982 0.13991,4.7892 0.0278,5.93032 -0.49542,5.04457 -1.798,9.45553 -3.99922,13.54278 -4.2576,7.90556 -11.26128,13.79013 -19.76042,16.60292 -3.89018,1.28745 -8.14485,1.88252 -12.2883,1.71868 z"
     id="path6"
     inkscape:label="circle"
     sodipodi:nodetypes="scscssssssssscsss" />
  <path
     style="display:inline;fill:#ff0000;stroke:#00ff00;stroke-width:0.0570222"
     d="m 122.69805,-282.43012 c -6.65101,-0.47128 -12.64301,-3.73387 -16.59559,-9.03615 -0.51424,-0.68984 -0.95728,-1.37699 -1.52328,-2.36257 -0.61205,-1.06578 -6.831002,-12.85037 -7.012802,-13.28891 -0.245332,-0.59178 -0.322571,-1.04459 -0.285156,-1.67173 0.08767,-1.46946 0.964996,-2.75973 2.294299,-3.37421 0.601699,-0.27813 1.096969,-0.36846 2.020359,-0.36846 h 0.80037 l 0.0165,-9.96464 c 0.0156,-9.37927 0.0225,-9.98474 0.11852,-10.30678 0.26848,-0.90047 0.98403,-2.00202 1.6298,-2.50898 0.98591,-0.77397 1.85193,-1.0787 3.05541,-1.07512 0.78865,0.002 1.30766,0.11412 2.0322,0.43766 0.16814,0.0751 2.65966,1.53865 5.53671,3.25236 l 5.23098,3.11584 h 4.26322 4.26322 l 5.27456,-3.1455 c 2.95246,-1.76071 5.47539,-3.2281 5.73074,-3.3331 0.49869,-0.20509 1.28307,-0.36407 1.7962,-0.36407 0.17996,0 0.55304,0.0394 0.82907,0.0875 1.84887,0.32242 3.31957,1.69737 3.86525,3.6136 l 0.1233,0.433 0.016,9.8791 0.016,9.87911 0.78265,0.001 c 0.98206,10e-4 1.42907,0.0926 2.11842,0.43286 0.90121,0.44486 1.64549,1.2853 1.97228,2.22711 0.28956,0.83449 0.2931,1.78155 0.009,2.53475 -0.19565,0.51956 -0.30098,0.7226 -3.52535,6.79563 -3.76724,7.09551 -3.80873,7.17056 -4.67251,8.45114 -1.51552,2.24681 -3.58684,4.28359 -5.9824,5.88268 -4.18397,2.79288 -9.21155,4.13023 -14.19855,3.77687 z m 3.47836,-2.90761 c 2.02394,-0.18775 4.14762,-0.74306 6.07657,-1.58894 3.64493,-1.59836 6.98196,-4.49827 8.89405,-7.729 0.89192,-1.50702 5.50152,-10.11744 6.62434,-12.37383 0.6382,-1.2825 0.65215,-1.31875 0.63035,-1.63851 -0.0177,-0.25956 -0.0581,-0.37129 -0.19583,-0.54172 -0.36564,-0.4524 -0.29679,-0.44073 -2.71319,-0.45961 l -2.15259,-0.0168 -0.002,-5.22923 -0.002,-5.22923 -4.11822,-2.48047 c -2.26503,-1.36425 -4.18879,-2.54906 -4.27504,-2.63289 -0.1657,-0.16107 -0.20718,-0.4167 -0.1001,-0.6168 0.0312,-0.0583 1.94519,-1.24091 4.25333,-2.62806 2.30813,-1.38716 4.21166,-2.56132 4.23005,-2.60925 0.0184,-0.0479 0.004,-0.29416 -0.0329,-0.54718 -0.0846,-0.5865 -0.37676,-1.20069 -0.70474,-1.48143 -0.44909,-0.3844 -1.22306,-0.50305 -1.88676,-0.28925 -0.20558,0.0662 -2.42189,1.35413 -5.93032,3.44614 l -5.60205,3.34039 -0.0285,3.67707 -0.0285,3.67707 -0.13332,0.2707 c -0.22748,0.46192 -0.81015,0.84123 -1.29224,0.84123 -0.47861,0 -1.06715,-0.38036 -1.27599,-0.82464 -0.11954,-0.25432 -0.12105,-0.3043 -0.12105,-3.99312 v -3.73557 h -1.99579 -1.99577 v 3.62417 c 0,2.47948 -0.0201,3.70404 -0.0637,3.87704 -0.0753,0.2991 -0.4291,0.7255 -0.72733,0.87661 -0.67686,0.34295 -1.48624,0.10541 -1.87097,-0.54911 l -0.16073,-0.27326 -0.0285,-3.72632 -0.0285,-3.72633 -5.6452,-3.35833 c -3.10487,-1.84708 -5.77351,-3.40201 -5.93032,-3.45539 -0.61238,-0.20847 -1.45798,-0.078 -1.88978,0.29162 -0.41063,0.35149 -0.70531,1.09644 -0.70419,1.78021 l 5.6e-4,0.33391 4.15706,2.49894 c 2.28639,1.37442 4.19781,2.54397 4.24761,2.59901 0.13434,0.14844 0.11611,0.51269 -0.0336,0.67209 -0.0683,0.0727 -1.97997,1.25282 -4.24816,2.62248 l -4.12397,2.49028 v 5.23602 5.23602 h -2.06045 c -2.28791,0 -2.40164,0.0143 -2.73202,0.34472 -0.29571,0.29572 -0.38677,0.65503 -0.26432,1.04311 0.20098,0.63701 1.38309,2.91853 4.65762,8.98937 2.65135,4.91548 2.92737,5.37917 3.93801,6.61543 4.31901,5.28323 10.68137,7.97283 17.38833,7.35067 z"
     id="path3"
     inkscape:label="outer face" />
  <path
     id="path7"
     style="display:inline;fill:#00ffff;stroke:#ff00ff;stroke-width:0.0570222"
     inkscape:label="inner face"
     d="m 133.65096,-315.92444 c -0.12141,-10e-4 -0.24252,0.009 -0.36122,0.03 -0.72265,0.13029 -1.42501,0.67593 -1.74201,1.35238 l -0.154,0.32762 v 2.25258 c 0,2.21172 0.002,2.25753 0.12765,2.52905 0.29955,0.64915 0.81494,1.13048 1.45313,1.35805 0.227,0.0809 0.41628,0.10262 0.76792,0.0879 0.40111,-0.0168 0.52744,-0.0493 0.894,-0.23047 0.4933,-0.24381 0.85725,-0.61055 1.10277,-1.11053 l 0.15969,-0.32453 v -2.30942 -2.30942 l -0.15452,-0.32918 c -0.36582,-0.78067 -1.24349,-1.31676 -2.09341,-1.32395 z m -18.68671,0.002 c -0.62007,-0.016 -1.25529,0.23171 -1.75029,0.76636 -0.19159,0.20694 -0.36564,0.46742 -0.44648,0.66869 -0.1286,0.32019 -0.13323,0.39001 -0.15089,2.36885 -0.0198,2.21533 0.006,2.46857 0.2992,2.96881 0.28772,0.49096 0.83531,0.93288 1.35909,1.09658 0.34694,0.10841 0.89131,0.0987 1.28158,-0.0227 0.63281,-0.19696 1.11428,-0.63486 1.42368,-1.29553 l 0.15813,-0.33796 v -2.25361 -2.25361 l -0.18965,-0.38551 c -0.41521,-0.84341 -1.18714,-1.29979 -1.98437,-1.32033 z m 4.74544,9.38341 c -3.54243,0.006 -3.64484,0.065 -4.42402,0.31109 -2.63803,0.83335 -4.6665,3.13979 -5.13767,5.8415 -0.0324,0.18599 -0.0499,0.44845 -0.0605,0.73071 h 1.16169 c 0.041,-0.55892 0.15107,-1.10687 0.33176,-1.60197 0.70404,-1.92912 2.34733,-3.42028 4.35994,-3.95687 0.55702,-0.14852 0.61082,-0.15213 2.33474,-0.15658 l 1.76527,-0.005 1.65623,1.95181 c 0.9111,1.07368 1.71179,1.99102 1.77922,2.03812 0.0674,0.0471 0.26781,0.12323 0.44545,0.1695 0.36653,0.0955 0.7792,0.0469 1.08107,-0.12764 0.0967,-0.0559 0.93258,-0.9941 1.85777,-2.08462 l 1.68206,-1.98283 1.73943,0.0258 c 1.30669,0.0192 1.83096,0.0479 2.10944,0.11473 2.74902,0.66007 4.71389,2.91584 4.92424,5.61516 h 1.15652 c -0.0111,-0.25342 -0.0301,-0.48986 -0.0615,-0.68058 -0.251,-1.52391 -0.96949,-2.92603 -2.05621,-4.01319 -0.97557,-0.97599 -2.10515,-1.61793 -3.53518,-2.0097 l -0.56999,-0.15658 -7.69824,-0.0165 c -2.09786,-0.005 -3.66076,-0.009 -4.84157,-0.007 z m 3.97444,7.63519 -0.0346,0.44183 c -0.10486,1.32294 -0.9137,2.93622 -1.93735,3.8654 -0.77427,0.70282 -1.82614,1.27262 -2.79827,1.51567 -0.60093,0.15023 -1.94031,0.19533 -2.51975,0.0848 -1.30978,-0.24996 -2.39488,-0.81943 -3.28869,-1.72599 -0.71777,-0.72803 -1.1214,-1.33529 -1.47587,-2.22054 -0.22329,-0.55763 -0.34728,-1.19626 -0.38293,-1.84795 h -1.15755 c 0.0134,0.38056 0.0385,0.74475 0.0853,0.98599 0.1191,0.61397 0.3737,1.34646 0.67748,1.95078 1.03927,2.06756 3.07956,3.60033 5.31078,3.98942 0.72737,0.12684 1.8866,0.11577 2.61328,-0.0253 0.32257,-0.0626 0.60171,-0.11411 0.62063,-0.11421 0.0189,-9e-5 0.0632,0.17278 0.0982,0.38448 0.33926,2.05077 1.87826,3.65553 3.86746,4.03283 0.14144,0.0268 0.30896,0.044 0.48524,0.0543 v -1.16014 c -0.27105,-0.0384 -0.55139,-0.0987 -0.86403,-0.20102 -0.50452,-0.16511 -1.08216,-0.49122 -1.24591,-0.70383 -0.0832,-0.10804 -0.25181,-0.31522 -0.37466,-0.46044 -0.40279,-0.47615 -0.77463,-1.49367 -0.77463,-2.11977 v -0.26871 l 0.47026,-0.26459 c 1.30577,-0.73396 2.36887,-1.83107 3.00291,-3.09955 0.098,-0.19602 0.19872,-0.35657 0.22428,-0.35657 0.0256,0 0.10856,0.13457 0.18449,0.29869 0.55826,1.20671 1.77255,2.46379 3.07836,3.18689 l 0.45114,0.2496 -0.0326,0.28525 c -0.19836,1.73804 -1.35129,3.0969 -2.90267,3.42149 -0.11923,0.0249 -0.23529,0.0362 -0.35191,0.0491 v 1.12913 c 0.30845,-0.0233 0.60544,-0.0608 0.82682,-0.12299 1.80247,-0.50666 3.11147,-1.92496 3.49229,-3.78375 0.0571,-0.27847 0.11459,-0.51715 0.12816,-0.53072 0.0136,-0.0136 0.29119,0.0301 0.6165,0.0971 0.51335,0.10587 0.71929,0.1183 1.56063,0.0935 1.08627,-0.032 1.57199,-0.12669 2.44998,-0.47749 2.33374,-0.93245 4.03225,-2.93484 4.56923,-5.38727 0.0629,-0.28711 0.099,-0.70249 0.11524,-1.13223 h -1.14722 c -0.16092,2.67684 -2.01422,4.96974 -4.69222,5.68802 -0.48907,0.13118 -0.66628,0.14937 -1.5229,0.15297 -0.84489,0.004 -1.0353,-0.0132 -1.4826,-0.13074 -2.60208,-0.68378 -4.47857,-2.83819 -4.73666,-5.43843 l -0.0382,-0.38499 h -0.58343 z" />
  <metadata
     id="metadata10">
    <rdf:RDF>
      <cc:Work
         rdf:about="">
        <dc:title>OpenSCAD Model</dc:title>
      </cc:Work>
    </rdf:RDF>
  </metadata>
</svg>
