<?xml version="1.0" standalone="no"?>
<!DOCTYPE svg PUBLIC "-//W3C//DTD SVG 1.1//EN" "http://www.w3.org/Graphics/SVG/1.1/DTD/svg11.dtd">
<svg width="323mm" height="72mm" viewBox="-38 -72 323 72" xmlns="http://www.w3.org/2000/svg" version="1.1">
<title>OpenSCAD Model</title>
<path d="
M -2.40002,-8.89999 L 11.84,-8.89999 L 11.84,-0 L 18.96,-0 L 18.96,-8.89999 L 33.2,-8.89999
 L 33.2,-0 L 40.32,-0 L 40.32,-8.89999 L 54.56,-8.89999 L 54.56,-0 L 61.68,-0
 L 61.68,-8.89999 L 75.92,-8.89999 L 75.92,-0 L 83.04,-0 L 83.04,-8.89999 L 97.28,-8.89999
 L 97.28,-0 L 104.4,-0 L 104.4,-8.89999 L 118.64,-8.89999 L 118.64,-0 L 125.76,-0
 L 125.76,-8.89999 L 140,-8.89999 L 140,-0 L 147.12,-0 L 147.12,-8.89999 L 161.36,-8.89999
 L 161.36,-0 L 168.48,-0 L 168.48,-8.89999 L 182.72,-8.89999 L 182.72,-0 L 189.84,-0
 L 189.84,-8.89999 L 204.08,-8.89999 L 204.08,-0 L 211.2,-0 L 211.2,-8.89999 L 225.44,-8.89999
 L 225.44,-0 L 232.56,-0 L 232.56,-8.89999 L 246.8,-8.89999 L 246.8,-0 L 253.92,-0
 L 253.92,-8.89999 L 268.16,-8.89999 L 268.16,-3.0407 L 269.084,-3.51157 L 270,-4.01923 L 270.898,-4.55855
 L 271.776,-5.12886 L 272.634,-5.72948 L 273.47,-6.35966 L 274.284,-7.01866 L 275.074,-7.70564 L 275.28,-7.89781
 L 275.28,-8.89999 L 276.32,-8.89999 L 276.58,-9.16025 L 277.294,-9.92607 L 277.981,-10.7164 L 278.64,-11.5302
 L 279.271,-12.3664 L 279.871,-13.2242 L 280.441,-14.1024 L 280.981,-15 L 281.488,-15.9158 L 281.964,-16.8489
 L 282.406,-17.7979 L 282.407,-17.8 L 275.28,-17.8 L 275.28,-49.84 L 285,-49.84 L 285,-58.74
 L 275.28,-58.74 L 275.28,-67.64 L 271.72,-71.2 L 268.16,-67.64 L 268.16,-58.74 L 253.92,-58.74
 L 253.92,-67.64 L 250.36,-71.2 L 246.8,-67.64 L 246.8,-58.74 L 232.56,-58.74 L 232.56,-67.64
 L 229,-71.2 L 225.44,-67.64 L 225.44,-58.74 L 211.2,-58.74 L 211.2,-67.64 L 207.64,-71.2
 L 204.08,-67.64 L 204.08,-58.74 L 189.84,-58.74 L 189.84,-67.64 L 186.28,-71.2 L 182.72,-67.64
 L 182.72,-58.74 L 168.48,-58.74 L 168.48,-67.64 L 164.92,-71.2 L 161.36,-67.64 L 161.36,-58.74
 L 147.12,-58.74 L 147.12,-67.64 L 143.56,-71.2 L 140,-67.64 L 140,-58.74 L 125.76,-58.74
 L 125.76,-67.64 L 122.2,-71.2 L 118.64,-67.64 L 118.64,-58.74 L 104.4,-58.74 L 104.4,-67.64
 L 100.84,-71.2 L 97.28,-67.64 L 97.28,-58.74 L 83.04,-58.74 L 83.04,-67.64 L 79.48,-71.2
 L 75.92,-67.64 L 75.92,-58.74 L 61.68,-58.74 L 61.68,-67.64 L 58.12,-71.2 L 54.56,-67.64
 L 54.56,-58.74 L 40.32,-58.74 L 40.32,-67.64 L 36.76,-71.2 L 33.2,-67.64 L 33.2,-58.74
 L 18.96,-58.74 L 18.96,-67.64 L 15.4,-71.2 L 11.84,-67.64 L 11.84,-58.74 L -2.40002,-58.74
 L -2.40002,-67.64 L -5.96002,-71.2 L -9.52002,-67.64 L -9.52002,-58.74 L -23.76,-58.74 L -23.76,-67.64
 L -27.32,-71.2 L -30.88,-67.64 L -30.88,-58.74 L -38,-58.74 L -38,-49.84 L -30.88,-49.84
 L -30.88,-17.8 L -35.4072,-17.8 L -35.4064,-17.7979 L -34.9638,-16.8489 L -34.4884,-15.9158 L -33.9808,-15
 L -33.4414,-14.1024 L -32.8711,-13.2242 L -32.2705,-12.3664 L -31.6403,-11.5302 L -30.9813,-10.7164 L -30.2943,-9.92607
 L -29.5802,-9.16025 L -28.8397,-8.4198 L -28.0739,-7.70564 L -27.2836,-7.01866 L -26.4698,-6.35966 L -25.6335,-5.72948
 L -24.7758,-5.12886 L -23.8976,-4.55855 L -23.76,-4.47589 L -23.76,-8.89999 L -9.52002,-8.89999 L -9.52002,-0.0430603
 L -9.04698,-0.0182648 L -8,-0 L -2.40002,-0 z
M 253.92,-17.8 L 253.92,-49.84 L 268.16,-49.84 L 268.16,-17.8 z
M -23.76,-17.8 L -23.76,-49.84 L -9.52002,-49.84 L -9.52002,-17.8 z
M -2.40002,-17.8 L -2.40002,-49.84 L 11.84,-49.84 L 11.84,-17.8 z
M 18.96,-17.8 L 18.96,-49.84 L 33.2,-49.84 L 33.2,-17.8 z
M 40.32,-17.8 L 40.32,-49.84 L 54.56,-49.84 L 54.56,-17.8 z
M 61.68,-17.8 L 61.68,-49.84 L 75.92,-49.84 L 75.92,-17.8 z
M 83.04,-17.8 L 83.04,-49.84 L 97.28,-49.84 L 97.28,-17.8 z
M 104.4,-17.8 L 104.4,-49.84 L 118.64,-49.84 L 118.64,-17.8 z
M 125.76,-17.8 L 125.76,-49.84 L 140,-49.84 L 140,-17.8 z
M 147.12,-17.8 L 147.12,-49.84 L 161.36,-49.84 L 161.36,-17.8 z
M 168.48,-17.8 L 168.48,-49.84 L 182.72,-49.84 L 182.72,-17.8 z
M 189.84,-17.8 L 189.84,-49.84 L 204.08,-49.84 L 204.08,-17.8 z
M 211.2,-17.8 L 211.2,-49.84 L 225.44,-49.84 L 225.44,-17.8 z
M 232.56,-17.8 L 232.56,-49.84 L 246.8,-49.84 L 246.8,-17.8 z
" stroke="black" fill="lightgray" stroke-width="0.5"/>
</svg>
