<?xml version="1.0" standalone="no"?>
<!DOCTYPE svg PUBLIC "-//W3C//DTD SVG 1.1//EN" "http://www.w3.org/Graphics/SVG/1.1/DTD/svg11.dtd">
<svg width="323mm" height="348mm" viewBox="-38 -348 323 348" xmlns="http://www.w3.org/2000/svg" version="1.1">
<title>OpenSCAD Model</title>
<path d="
M 124.721,-278.021 L 125.941,-278.085 L 127.158,-278.192 L 128.371,-278.341 L 129.578,-278.532 L 130.777,-278.765
 L 131.967,-279.04 L 133.147,-279.356 L 134.316,-279.713 L 135.471,-280.111 L 136.611,-280.549 L 137.736,-281.026
 L 138.843,-281.542 L 139.932,-282.097 L 141,-282.689 L 142.047,-283.318 L 143.072,-283.984 L 144.072,-284.684
 L 145.048,-285.42 L 145.998,-286.188 L 146.92,-286.99 L 147.813,-287.823 L 148.677,-288.687 L 149.51,-289.58
 L 150.312,-290.502 L 151.08,-291.452 L 151.816,-292.428 L 152.516,-293.428 L 153.182,-294.453 L 153.811,-295.5
 L 154.403,-296.568 L 154.958,-297.657 L 155.474,-298.764 L 155.951,-299.889 L 156.389,-301.029 L 156.787,-302.184
 L 157.144,-303.353 L 157.46,-304.533 L 157.735,-305.723 L 157.968,-306.922 L 158.159,-308.129 L 158.308,-309.341
 L 158.415,-310.559 L 158.479,-311.779 L 158.5,-313 L 158.479,-314.221 L 158.415,-315.441 L 158.308,-316.658
 L 158.159,-317.871 L 157.968,-319.078 L 157.735,-320.277 L 157.46,-321.467 L 157.144,-322.647 L 156.787,-323.816
 L 156.389,-324.971 L 155.951,-326.111 L 155.474,-327.236 L 154.958,-328.343 L 154.403,-329.432 L 153.811,-330.5
 L 153.182,-331.547 L 152.516,-332.572 L 151.816,-333.572 L 151.08,-334.548 L 150.312,-335.498 L 149.51,-336.42
 L 148.677,-337.313 L 147.813,-338.177 L 146.92,-339.01 L 145.998,-339.812 L 145.048,-340.58 L 144.072,-341.316
 L 143.072,-342.016 L 142.047,-342.682 L 141,-343.311 L 139.932,-343.903 L 138.843,-344.458 L 137.736,-344.974
 L 136.611,-345.451 L 135.471,-345.889 L 134.316,-346.287 L 133.147,-346.644 L 131.967,-346.96 L 130.777,-347.235
 L 129.578,-347.468 L 128.371,-347.659 L 127.158,-347.808 L 125.941,-347.915 L 124.721,-347.979 L 123.5,-348
 L 122.279,-347.979 L 121.059,-347.915 L 119.841,-347.808 L 118.629,-347.659 L 117.422,-347.468 L 116.223,-347.235
 L 115.033,-346.96 L 113.853,-346.644 L 112.684,-346.287 L 111.529,-345.889 L 110.389,-345.451 L 109.264,-344.974
 L 108.157,-344.458 L 107.068,-343.903 L 106,-343.311 L 104.953,-342.682 L 103.928,-342.016 L 102.928,-341.316
 L 101.952,-340.58 L 101.002,-339.812 L 100.08,-339.01 L 99.187,-338.177 L 98.3231,-337.313 L 97.4899,-336.42
 L 96.6884,-335.498 L 95.9196,-334.548 L 95.1844,-333.572 L 94.4837,-332.572 L 93.8183,-331.547 L 93.1891,-330.5
 L 92.5968,-329.432 L 92.0422,-328.343 L 91.5259,-327.236 L 91.0486,-326.111 L 90.6107,-324.971 L 90.213,-323.816
 L 89.8558,-322.647 L 89.5396,-321.467 L 89.2648,-320.277 L 89.0317,-319.078 L 88.8406,-317.871 L 88.6917,-316.658
 L 88.5853,-315.441 L 88.5213,-314.221 L 88.5,-313 L 88.5213,-311.779 L 88.5853,-310.559 L 88.6917,-309.341
 L 88.8406,-308.129 L 89.0317,-306.922 L 89.2648,-305.723 L 89.5396,-304.533 L 89.8558,-303.353 L 90.213,-302.184
 L 90.6107,-301.029 L 91.0486,-299.889 L 91.5259,-298.764 L 92.0422,-297.657 L 92.5968,-296.568 L 93.1891,-295.5
 L 93.8183,-294.453 L 94.4837,-293.428 L 95.1844,-292.428 L 95.9196,-291.452 L 96.6884,-290.502 L 97.4899,-289.58
 L 98.3231,-288.687 L 99.187,-287.823 L 100.08,-286.99 L 101.002,-286.188 L 101.952,-285.42 L 102.928,-284.684
 L 103.928,-283.984 L 104.953,-283.318 L 106,-282.689 L 107.068,-282.097 L 108.157,-281.542 L 109.264,-281.026
 L 110.389,-280.549 L 111.529,-280.111 L 112.684,-279.713 L 113.853,-279.356 L 115.033,-279.04 L 116.223,-278.765
 L 117.422,-278.532 L 118.629,-278.341 L 119.841,-278.192 L 121.059,-278.085 L 122.279,-278.021 L 123.5,-278
 z
M 124.049,-282.103 L 123.818,-282.106 L 123.588,-282.112 L 123.359,-282.119 L 123.13,-282.129 L 122.901,-282.141
 L 122.673,-282.156 L 122.445,-282.172 L 122.218,-282.191 L 121.991,-282.212 L 121.764,-282.235 L 121.538,-282.26
 L 121.313,-282.288 L 121.088,-282.317 L 120.863,-282.349 L 120.639,-282.383 L 120.415,-282.42 L 120.192,-282.458
 L 119.969,-282.499 L 119.747,-282.542 L 119.525,-282.587 L 119.303,-282.634 L 119.082,-282.684 L 118.862,-282.735
 L 118.642,-282.789 L 118.424,-282.844 L 118.206,-282.902 L 117.989,-282.962 L 117.773,-283.023 L 117.558,-283.087
 L 117.344,-283.153 L 117.131,-283.22 L 116.919,-283.29 L 116.707,-283.362 L 116.497,-283.436 L 116.287,-283.511
 L 116.079,-283.589 L 115.871,-283.669 L 115.664,-283.751 L 115.458,-283.835 L 115.253,-283.921 L 115.048,-284.008
 L 114.845,-284.098 L 114.643,-284.19 L 114.441,-284.284 L 114.241,-284.38 L 114.041,-284.478 L 113.842,-284.578
 L 113.645,-284.68 L 113.448,-284.783 L 113.252,-284.889 L 113.058,-284.996 L 112.864,-285.105 L 112.672,-285.217
 L 112.48,-285.33 L 112.29,-285.444 L 112.101,-285.561 L 111.912,-285.68 L 111.725,-285.8 L 111.539,-285.923
 L 111.354,-286.047 L 111.169,-286.173 L 110.986,-286.302 L 110.804,-286.431 L 110.623,-286.563 L 110.443,-286.697
 L 110.264,-286.833 L 110.086,-286.97 L 109.909,-287.11 L 109.733,-287.251 L 109.559,-287.394 L 109.386,-287.539
 L 109.215,-287.685 L 109.045,-287.834 L 108.877,-287.984 L 108.71,-288.136 L 108.545,-288.29 L 108.381,-288.445
 L 108.218,-288.603 L 108.057,-288.762 L 107.898,-288.923 L 107.74,-289.086 L 107.584,-289.25 L 107.429,-289.417
 L 107.275,-289.585 L 107.123,-289.755 L 106.972,-289.927 L 106.823,-290.1 L 106.676,-290.275 L 106.53,-290.453
 L 106.385,-290.632 L 106.242,-290.812 L 106.174,-290.899 L 106.107,-290.986 L 106.04,-291.074 L 105.973,-291.161
 L 105.908,-291.25 L 105.842,-291.338 L 105.777,-291.427 L 105.713,-291.516 L 105.649,-291.605 L 105.586,-291.695
 L 105.523,-291.785 L 105.46,-291.875 L 105.398,-291.966 L 105.337,-292.056 L 105.276,-292.148 L 105.215,-292.239
 L 105.155,-292.331 L 105.096,-292.423 L 105.037,-292.516 L 104.978,-292.609 L 104.92,-292.702 L 104.863,-292.795
 L 104.806,-292.889 L 104.749,-292.983 L 104.693,-293.077 L 104.637,-293.172 L 104.581,-293.266 L 104.525,-293.361
 L 104.469,-293.456 L 104.414,-293.552 L 104.359,-293.647 L 104.304,-293.743 L 104.25,-293.839 L 104.195,-293.935
 L 104.141,-294.032 L 104.087,-294.129 L 104.033,-294.226 L 103.98,-294.323 L 103.927,-294.42 L 103.873,-294.518
 L 103.821,-294.616 L 103.768,-294.714 L 103.716,-294.812 L 103.664,-294.91 L 103.612,-295.009 L 103.56,-295.108
 L 97.5553,-306.453 L 97.5328,-306.498 L 97.5107,-306.544 L 97.489,-306.589 L 97.4677,-306.634 L 97.4468,-306.678
 L 97.4263,-306.723 L 97.4063,-306.768 L 97.3866,-306.812 L 97.3673,-306.856 L 97.3484,-306.9 L 97.33,-306.944
 L 97.3119,-306.988 L 97.2943,-307.032 L 97.277,-307.076 L 97.2601,-307.119 L 97.2437,-307.162 L 97.2276,-307.206
 L 97.212,-307.249 L 97.1968,-307.291 L 97.1819,-307.334 L 97.1675,-307.377 L 97.1535,-307.419 L 97.1399,-307.462
 L 97.1267,-307.504 L 97.1142,-307.547 L 97.1022,-307.591 L 97.0908,-307.634 L 97.08,-307.678 L 97.0698,-307.723
 L 97.0602,-307.768 L 97.0511,-307.813 L 97.0427,-307.859 L 97.0348,-307.905 L 97.0275,-307.952 L 97.0208,-307.999
 L 97.0147,-308.046 L 97.0091,-308.094 L 97.0042,-308.142 L 96.9998,-308.191 L 96.996,-308.24 L 96.9928,-308.289
 L 96.9902,-308.339 L 96.9881,-308.389 L 96.9867,-308.439 L 96.9858,-308.49 L 96.9855,-308.542 L 96.9861,-308.618
 L 96.988,-308.694 L 96.9911,-308.769 L 96.9955,-308.844 L 97.0012,-308.919 L 97.0081,-308.994 L 97.0163,-309.068
 L 97.0257,-309.141 L 97.0364,-309.215 L 97.0483,-309.288 L 97.0615,-309.36 L 97.0759,-309.432 L 97.0916,-309.504
 L 97.1086,-309.576 L 97.1268,-309.647 L 97.1462,-309.718 L 97.167,-309.788 L 97.1889,-309.858 L 97.2122,-309.928
 L 97.2367,-309.997 L 97.2624,-310.066 L 97.2894,-310.135 L 97.3177,-310.203 L 97.347,-310.271 L 97.3774,-310.338
 L 97.4086,-310.404 L 97.4408,-310.47 L 97.474,-310.534 L 97.5081,-310.598 L 97.5431,-310.661 L 97.5791,-310.724
 L 97.616,-310.785 L 97.6538,-310.846 L 97.6926,-310.906 L 97.7323,-310.966 L 97.773,-311.024 L 97.8146,-311.082
 L 97.8572,-311.139 L 97.9007,-311.195 L 97.9451,-311.251 L 97.9905,-311.306 L 98.0368,-311.36 L 98.0841,-311.413
 L 98.1323,-311.465 L 98.1814,-311.517 L 98.2315,-311.568 L 98.2824,-311.618 L 98.3341,-311.667 L 98.3865,-311.715
 L 98.4396,-311.763 L 98.4934,-311.809 L 98.5479,-311.854 L 98.6031,-311.899 L 98.6591,-311.942 L 98.7157,-311.985
 L 98.7731,-312.026 L 98.8312,-312.067 L 98.89,-312.107 L 98.9496,-312.146 L 99.0098,-312.183 L 99.0708,-312.22
 L 99.1325,-312.256 L 99.1949,-312.291 L 99.258,-312.325 L 99.3218,-312.358 L 99.3863,-312.391 L 99.4516,-312.422
 L 99.5176,-312.452 L 99.5843,-312.481 L 99.6516,-312.51 L 99.7194,-312.537 L 99.7877,-312.563 L 99.8565,-312.587
 L 99.9258,-312.61 L 99.9956,-312.632 L 100.066,-312.653 L 100.137,-312.673 L 100.208,-312.691 L 100.28,-312.708
 L 100.352,-312.723 L 100.425,-312.738 L 100.498,-312.751 L 100.572,-312.763 L 100.646,-312.774 L 100.721,-312.783
 L 100.796,-312.791 L 100.872,-312.798 L 100.948,-312.804 L 101.025,-312.808 L 101.102,-312.811 L 101.179,-312.813
 L 101.258,-312.814 L 102.112,-312.814 L 102.112,-331.564 L 102.113,-331.657 L 102.115,-331.749 L 102.119,-331.84
 L 102.124,-331.931 L 102.131,-332.022 L 102.14,-332.112 L 102.15,-332.201 L 102.161,-332.29 L 102.174,-332.378
 L 102.189,-332.466 L 102.205,-332.553 L 102.222,-332.64 L 102.241,-332.726 L 102.262,-332.812 L 102.284,-332.897
 L 102.307,-332.981 L 102.333,-333.065 L 102.359,-333.149 L 102.387,-333.232 L 102.417,-333.314 L 102.448,-333.396
 L 102.481,-333.477 L 102.516,-333.558 L 102.551,-333.638 L 102.588,-333.717 L 102.626,-333.795 L 102.664,-333.873
 L 102.704,-333.95 L 102.745,-334.025 L 102.788,-334.1 L 102.831,-334.174 L 102.875,-334.248 L 102.92,-334.32
 L 102.967,-334.392 L 103.014,-334.462 L 103.063,-334.532 L 103.112,-334.601 L 103.163,-334.669 L 103.215,-334.736
 L 103.268,-334.803 L 103.321,-334.868 L 103.376,-334.933 L 103.432,-334.997 L 103.49,-335.06 L 103.548,-335.122
 L 103.607,-335.183 L 103.667,-335.244 L 103.729,-335.303 L 103.791,-335.361 L 103.854,-335.418 L 103.918,-335.474
 L 103.982,-335.529 L 104.048,-335.582 L 104.115,-335.635 L 104.182,-335.686 L 104.251,-335.736 L 104.32,-335.786
 L 104.39,-335.833 L 104.461,-335.88 L 104.533,-335.926 L 104.606,-335.971 L 104.68,-336.014 L 104.755,-336.057
 L 104.83,-336.098 L 104.907,-336.138 L 104.984,-336.177 L 105.062,-336.215 L 105.141,-336.252 L 105.221,-336.287
 L 105.302,-336.322 L 105.383,-336.355 L 105.465,-336.386 L 105.548,-336.416 L 105.631,-336.444 L 105.714,-336.47
 L 105.798,-336.496 L 105.883,-336.519 L 105.968,-336.541 L 106.053,-336.562 L 106.139,-336.581 L 106.226,-336.599
 L 106.313,-336.615 L 106.401,-336.629 L 106.489,-336.642 L 106.578,-336.654 L 106.667,-336.663 L 106.757,-336.672
 L 106.848,-336.679 L 106.939,-336.684 L 107.03,-336.688 L 107.122,-336.69 L 107.215,-336.691 L 107.275,-336.691
 L 107.335,-336.689 L 107.395,-336.688 L 107.454,-336.685 L 107.514,-336.681 L 107.574,-336.677 L 107.634,-336.672
 L 107.694,-336.667 L 107.754,-336.66 L 107.814,-336.653 L 107.873,-336.645 L 107.933,-336.636 L 107.993,-336.626
 L 108.053,-336.616 L 108.113,-336.605 L 108.173,-336.593 L 108.232,-336.581 L 108.292,-336.567 L 108.352,-336.553
 L 108.412,-336.538 L 108.472,-336.523 L 108.532,-336.506 L 108.592,-336.489 L 108.651,-336.471 L 108.711,-336.453
 L 108.77,-336.434 L 108.829,-336.414 L 108.887,-336.394 L 108.946,-336.373 L 109.004,-336.352 L 109.062,-336.33
 L 109.119,-336.308 L 109.177,-336.285 L 109.234,-336.261 L 109.29,-336.237 L 109.347,-336.212 L 109.403,-336.186
 L 109.459,-336.16 L 109.515,-336.134 L 109.57,-336.107 L 109.625,-336.079 L 109.68,-336.051 L 109.735,-336.022
 L 109.789,-335.992 L 109.843,-335.962 L 109.897,-335.931 L 120.103,-329.855 L 128.457,-329.855 L 138.782,-336.002
 L 138.883,-336.061 L 138.986,-336.117 L 139.089,-336.17 L 139.194,-336.221 L 139.299,-336.269 L 139.405,-336.315
 L 139.512,-336.358 L 139.62,-336.398 L 139.728,-336.436 L 139.838,-336.471 L 139.949,-336.504 L 140.06,-336.533
 L 140.172,-336.561 L 140.286,-336.586 L 140.4,-336.608 L 140.515,-336.627 L 140.631,-336.644 L 140.748,-336.658
 L 140.865,-336.67 L 140.984,-336.679 L 141.103,-336.686 L 141.224,-336.69 L 141.345,-336.691 L 141.438,-336.69
 L 141.53,-336.688 L 141.621,-336.684 L 141.712,-336.679 L 141.803,-336.672 L 141.893,-336.663 L 141.982,-336.654
 L 142.071,-336.642 L 142.159,-336.629 L 142.247,-336.615 L 142.334,-336.599 L 142.421,-336.581 L 142.507,-336.562
 L 142.593,-336.541 L 142.678,-336.519 L 142.762,-336.496 L 142.846,-336.47 L 142.93,-336.444 L 143.012,-336.416
 L 143.095,-336.386 L 143.177,-336.355 L 143.258,-336.322 L 143.339,-336.287 L 143.419,-336.252 L 143.498,-336.215
 L 143.576,-336.177 L 143.654,-336.138 L 143.73,-336.098 L 143.806,-336.057 L 143.88,-336.014 L 143.954,-335.971
 L 144.027,-335.926 L 144.099,-335.88 L 144.17,-335.833 L 144.24,-335.786 L 144.309,-335.736 L 144.378,-335.686
 L 144.445,-335.635 L 144.512,-335.582 L 144.577,-335.529 L 144.642,-335.474 L 144.706,-335.418 L 144.769,-335.361
 L 144.831,-335.303 L 144.892,-335.244 L 144.953,-335.183 L 145.012,-335.122 L 145.07,-335.06 L 145.127,-334.997
 L 145.183,-334.933 L 145.238,-334.868 L 145.292,-334.803 L 145.345,-334.736 L 145.397,-334.669 L 145.448,-334.601
 L 145.497,-334.532 L 145.546,-334.462 L 145.593,-334.392 L 145.64,-334.32 L 145.685,-334.248 L 145.729,-334.174
 L 145.772,-334.1 L 145.815,-334.025 L 145.855,-333.95 L 145.895,-333.873 L 145.934,-333.795 L 145.972,-333.717
 L 146.009,-333.638 L 146.044,-333.558 L 146.079,-333.477 L 146.111,-333.396 L 146.143,-333.314 L 146.172,-333.232
 L 146.201,-333.149 L 146.227,-333.065 L 146.253,-332.981 L 146.276,-332.897 L 146.298,-332.812 L 146.319,-332.726
 L 146.338,-332.64 L 146.356,-332.553 L 146.372,-332.466 L 146.386,-332.378 L 146.399,-332.29 L 146.41,-332.201
 L 146.42,-332.112 L 146.429,-332.022 L 146.436,-331.931 L 146.441,-331.84 L 146.445,-331.749 L 146.447,-331.657
 L 146.448,-331.564 L 146.448,-312.814 L 147.303,-312.814 L 147.379,-312.813 L 147.455,-312.811 L 147.53,-312.808
 L 147.605,-312.804 L 147.68,-312.798 L 147.754,-312.791 L 147.828,-312.783 L 147.902,-312.774 L 147.975,-312.763
 L 148.048,-312.751 L 148.121,-312.738 L 148.193,-312.723 L 148.265,-312.708 L 148.336,-312.691 L 148.407,-312.673
 L 148.478,-312.653 L 148.549,-312.632 L 148.619,-312.61 L 148.688,-312.587 L 148.758,-312.563 L 148.827,-312.537
 L 148.895,-312.51 L 148.964,-312.481 L 149.031,-312.452 L 149.098,-312.422 L 149.165,-312.391 L 149.23,-312.358
 L 149.295,-312.325 L 149.359,-312.291 L 149.422,-312.256 L 149.484,-312.22 L 149.546,-312.183 L 149.607,-312.146
 L 149.667,-312.107 L 149.726,-312.067 L 149.785,-312.026 L 149.842,-311.985 L 149.899,-311.942 L 149.956,-311.899
 L 150.011,-311.854 L 150.066,-311.809 L 150.12,-311.763 L 150.173,-311.715 L 150.226,-311.667 L 150.277,-311.618
 L 150.328,-311.568 L 150.378,-311.517 L 150.428,-311.465 L 150.476,-311.413 L 150.523,-311.36 L 150.569,-311.306
 L 150.615,-311.251 L 150.659,-311.195 L 150.703,-311.139 L 150.745,-311.082 L 150.787,-311.024 L 150.828,-310.966
 L 150.867,-310.906 L 150.906,-310.846 L 150.944,-310.785 L 150.981,-310.724 L 151.017,-310.661 L 151.052,-310.598
 L 151.086,-310.534 L 151.119,-310.47 L 151.151,-310.404 L 151.182,-310.338 L 151.213,-310.271 L 151.242,-310.203
 L 151.27,-310.135 L 151.297,-310.066 L 151.323,-309.997 L 151.348,-309.928 L 151.371,-309.858 L 151.393,-309.788
 L 151.414,-309.718 L 151.433,-309.647 L 151.451,-309.576 L 151.468,-309.504 L 151.484,-309.432 L 151.499,-309.36
 L 151.512,-309.288 L 151.524,-309.215 L 151.534,-309.141 L 151.544,-309.068 L 151.552,-308.994 L 151.559,-308.919
 L 151.565,-308.844 L 151.569,-308.769 L 151.572,-308.694 L 151.574,-308.618 L 151.575,-308.542 L 151.574,-308.49
 L 151.573,-308.439 L 151.572,-308.389 L 151.57,-308.338 L 151.567,-308.288 L 151.563,-308.238 L 151.559,-308.188
 L 151.555,-308.139 L 151.549,-308.09 L 151.543,-308.042 L 151.537,-307.993 L 151.529,-307.945 L 151.522,-307.898
 L 151.513,-307.85 L 151.504,-307.803 L 151.494,-307.757 L 151.484,-307.71 L 151.473,-307.664 L 151.461,-307.618
 L 151.449,-307.573 L 151.436,-307.528 L 151.423,-307.483 L 151.408,-307.438 L 151.394,-307.394 L 151.379,-307.349
 L 151.363,-307.305 L 151.348,-307.26 L 151.332,-307.216 L 151.315,-307.171 L 151.298,-307.127 L 151.281,-307.082
 L 151.264,-307.037 L 151.246,-306.992 L 151.228,-306.947 L 151.209,-306.903 L 151.19,-306.858 L 151.171,-306.813
 L 151.151,-306.768 L 151.131,-306.723 L 151.111,-306.677 L 151.09,-306.632 L 151.069,-306.587 L 151.048,-306.542
 L 151.026,-306.497 L 151.004,-306.451 L 150.981,-306.406 L 144.929,-295.013 L 144.877,-294.916 L 144.825,-294.82
 L 144.773,-294.723 L 144.721,-294.627 L 144.669,-294.531 L 144.616,-294.435 L 144.563,-294.339 L 144.51,-294.243
 L 144.457,-294.148 L 144.404,-294.052 L 144.35,-293.957 L 144.297,-293.862 L 144.243,-293.767 L 144.189,-293.673
 L 144.135,-293.578 L 144.08,-293.484 L 144.026,-293.39 L 143.971,-293.296 L 143.916,-293.203 L 143.861,-293.109
 L 143.806,-293.016 L 143.75,-292.923 L 143.695,-292.83 L 143.639,-292.737 L 143.582,-292.644 L 143.525,-292.552
 L 143.468,-292.46 L 143.409,-292.369 L 143.351,-292.277 L 143.291,-292.186 L 143.232,-292.095 L 143.171,-292.005
 L 143.111,-291.914 L 143.049,-291.824 L 142.987,-291.734 L 142.925,-291.645 L 142.862,-291.556 L 142.798,-291.467
 L 142.734,-291.378 L 142.67,-291.29 L 142.604,-291.201 L 142.539,-291.114 L 142.473,-291.026 L 142.406,-290.939
 L 142.338,-290.851 L 142.271,-290.765 L 142.127,-290.586 L 141.983,-290.409 L 141.837,-290.234 L 141.689,-290.061
 L 141.54,-289.889 L 141.39,-289.719 L 141.237,-289.551 L 141.084,-289.384 L 140.929,-289.22 L 140.773,-289.057
 L 140.615,-288.896 L 140.455,-288.736 L 140.294,-288.579 L 140.132,-288.423 L 139.968,-288.268 L 139.803,-288.116
 L 139.636,-287.965 L 139.467,-287.816 L 139.298,-287.669 L 139.126,-287.524 L 138.954,-287.38 L 138.779,-287.238
 L 138.604,-287.098 L 138.427,-286.96 L 138.249,-286.823 L 138.07,-286.688 L 137.89,-286.555 L 137.708,-286.424
 L 137.526,-286.295 L 137.343,-286.168 L 137.159,-286.042 L 136.974,-285.919 L 136.787,-285.797 L 136.6,-285.677
 L 136.412,-285.559 L 136.222,-285.442 L 136.032,-285.328 L 135.841,-285.215 L 135.648,-285.104 L 135.455,-284.995
 L 135.26,-284.888 L 135.065,-284.783 L 134.868,-284.68 L 134.67,-284.578 L 134.472,-284.478 L 134.272,-284.38
 L 134.071,-284.284 L 133.87,-284.19 L 133.668,-284.098 L 133.465,-284.008 L 133.261,-283.921 L 133.056,-283.835
 L 132.85,-283.751 L 132.643,-283.669 L 132.436,-283.589 L 132.228,-283.511 L 132.019,-283.436 L 131.809,-283.362
 L 131.598,-283.29 L 131.386,-283.22 L 131.173,-283.153 L 130.96,-283.087 L 130.746,-283.023 L 130.531,-282.962
 L 130.315,-282.902 L 130.098,-282.844 L 129.88,-282.789 L 129.662,-282.735 L 129.442,-282.684 L 129.222,-282.634
 L 129.002,-282.587 L 128.781,-282.542 L 128.56,-282.499 L 128.338,-282.458 L 128.116,-282.42 L 127.894,-282.383
 L 127.671,-282.349 L 127.448,-282.317 L 127.224,-282.288 L 127,-282.26 L 126.776,-282.235 L 126.551,-282.212
 L 126.326,-282.191 L 126.1,-282.172 L 125.874,-282.156 L 125.647,-282.141 L 125.42,-282.129 L 125.193,-282.119
 L 124.965,-282.112 L 124.737,-282.106 L 124.509,-282.103 L 124.28,-282.102 z
M 124.478,-285.521 L 124.675,-285.523 L 124.872,-285.528 L 125.069,-285.535 L 125.265,-285.544 L 125.461,-285.554
 L 125.656,-285.567 L 125.851,-285.581 L 126.045,-285.598 L 126.239,-285.616 L 126.432,-285.636 L 126.625,-285.658
 L 126.818,-285.683 L 127.01,-285.709 L 127.201,-285.737 L 127.393,-285.767 L 127.583,-285.798 L 127.774,-285.832
 L 127.963,-285.868 L 128.153,-285.905 L 128.342,-285.945 L 128.53,-285.986 L 128.718,-286.03 L 128.906,-286.075
 L 129.092,-286.122 L 129.278,-286.171 L 129.464,-286.221 L 129.648,-286.273 L 129.832,-286.327 L 130.015,-286.382
 L 130.198,-286.439 L 130.379,-286.498 L 130.56,-286.559 L 130.741,-286.621 L 130.92,-286.685 L 131.099,-286.751
 L 131.277,-286.818 L 131.455,-286.887 L 131.631,-286.958 L 131.807,-287.031 L 131.982,-287.105 L 132.157,-287.181
 L 132.331,-287.258 L 132.504,-287.338 L 132.676,-287.419 L 132.848,-287.502 L 133.019,-287.586 L 133.189,-287.672
 L 133.358,-287.76 L 133.526,-287.849 L 133.693,-287.94 L 133.86,-288.033 L 134.025,-288.127 L 134.19,-288.223
 L 134.353,-288.321 L 134.516,-288.42 L 134.678,-288.521 L 134.839,-288.624 L 134.999,-288.728 L 135.158,-288.834
 L 135.317,-288.942 L 135.474,-289.051 L 135.63,-289.162 L 135.786,-289.275 L 135.941,-289.389 L 136.095,-289.505
 L 136.247,-289.623 L 136.399,-289.742 L 136.551,-289.863 L 136.701,-289.986 L 136.85,-290.109 L 136.997,-290.235
 L 137.144,-290.362 L 137.289,-290.49 L 137.434,-290.619 L 137.577,-290.75 L 137.719,-290.883 L 137.859,-291.017
 L 137.999,-291.152 L 138.137,-291.289 L 138.275,-291.427 L 138.411,-291.567 L 138.546,-291.708 L 138.679,-291.851
 L 138.812,-291.995 L 138.943,-292.14 L 139.074,-292.287 L 139.203,-292.435 L 139.331,-292.585 L 139.458,-292.736
 L 139.583,-292.889 L 139.708,-293.043 L 139.765,-293.116 L 139.822,-293.188 L 139.878,-293.261 L 139.934,-293.334
 L 139.99,-293.408 L 140.044,-293.482 L 140.099,-293.556 L 140.152,-293.63 L 140.206,-293.704 L 140.258,-293.779
 L 140.31,-293.854 L 140.362,-293.93 L 140.413,-294.005 L 140.464,-294.081 L 140.514,-294.157 L 140.563,-294.234
 L 140.612,-294.31 L 140.66,-294.387 L 140.708,-294.464 L 140.755,-294.542 L 140.802,-294.62 L 140.848,-294.698
 L 140.894,-294.776 L 140.939,-294.854 L 140.985,-294.933 L 141.03,-295.012 L 141.075,-295.09 L 141.12,-295.169
 L 141.165,-295.248 L 141.21,-295.327 L 141.254,-295.406 L 141.299,-295.485 L 141.344,-295.565 L 141.388,-295.644
 L 141.432,-295.724 L 141.477,-295.803 L 141.521,-295.883 L 141.565,-295.962 L 141.609,-296.042 L 141.653,-296.122
 L 141.697,-296.202 L 141.741,-296.282 L 141.784,-296.362 L 141.828,-296.443 L 141.871,-296.523 L 141.915,-296.603
 L 141.932,-296.635 L 141.97,-296.707 L 142.037,-296.832 L 142.088,-296.927 L 142.207,-297.146 L 142.309,-297.335
 L 142.505,-297.698 L 142.685,-298.03 L 142.829,-298.296 L 142.928,-298.478 L 143.082,-298.761 L 143.241,-299.053
 L 143.462,-299.458 L 143.693,-299.882 L 143.934,-300.323 L 143.995,-300.435 L 144.056,-300.548 L 144.118,-300.661
 L 144.179,-300.775 L 144.241,-300.889 L 144.303,-301.003 L 144.365,-301.119 L 144.428,-301.234 L 144.49,-301.35
 L 144.553,-301.467 L 144.616,-301.584 L 144.679,-301.702 L 144.743,-301.82 L 144.806,-301.938 L 144.87,-302.057
 L 144.934,-302.177 L 144.998,-302.297 L 145.062,-302.418 L 145.126,-302.539 L 145.191,-302.66 L 145.256,-302.782
 L 145.32,-302.905 L 145.45,-303.149 L 145.514,-303.27 L 145.577,-303.39 L 145.702,-303.628 L 145.826,-303.863
 L 145.948,-304.095 L 146.008,-304.209 L 146.128,-304.437 L 146.187,-304.549 L 146.303,-304.772 L 146.361,-304.882
 L 146.475,-305.1 L 146.587,-305.315 L 146.642,-305.422 L 146.697,-305.527 L 146.751,-305.632 L 146.805,-305.735
 L 146.857,-305.837 L 146.909,-305.937 L 146.96,-306.036 L 147.011,-306.134 L 147.06,-306.23 L 147.109,-306.325
 L 147.157,-306.418 L 147.204,-306.51 L 147.25,-306.601 L 147.295,-306.69 L 147.34,-306.778 L 147.384,-306.865
 L 147.427,-306.95 L 147.469,-307.034 L 147.51,-307.116 L 147.551,-307.197 L 147.59,-307.276 L 147.629,-307.354
 L 147.668,-307.431 L 147.705,-307.506 L 147.741,-307.58 L 147.777,-307.652 L 147.811,-307.722 L 147.843,-307.788
 L 147.873,-307.852 L 147.902,-307.913 L 147.93,-307.971 L 147.956,-308.026 L 147.98,-308.079 L 148.003,-308.129
 L 148.024,-308.176 L 148.044,-308.221 L 148.062,-308.263 L 148.078,-308.302 L 148.093,-308.338 L 148.107,-308.372
 L 148.118,-308.403 L 148.129,-308.431 L 148.137,-308.456 L 148.144,-308.479 L 148.15,-308.499 L 148.154,-308.516
 L 148.156,-308.53 L 148.157,-308.542 L 148.156,-308.573 L 148.155,-308.603 L 148.153,-308.633 L 148.149,-308.662
 L 148.145,-308.692 L 148.14,-308.72 L 148.134,-308.749 L 148.127,-308.777 L 148.119,-308.804 L 148.11,-308.831
 L 148.1,-308.858 L 148.089,-308.884 L 148.077,-308.91 L 148.065,-308.936 L 148.051,-308.961 L 148.036,-308.985
 L 148.021,-309.01 L 148.004,-309.034 L 147.987,-309.057 L 147.968,-309.08 L 147.949,-309.103 L 147.929,-309.125
 L 147.908,-309.147 L 147.886,-309.168 L 147.864,-309.188 L 147.841,-309.208 L 147.818,-309.226 L 147.794,-309.244
 L 147.77,-309.26 L 147.746,-309.276 L 147.721,-309.29 L 147.696,-309.304 L 147.671,-309.317 L 147.645,-309.328
 L 147.619,-309.339 L 147.592,-309.349 L 147.565,-309.358 L 147.537,-309.366 L 147.509,-309.373 L 147.481,-309.379
 L 147.452,-309.384 L 147.423,-309.389 L 147.394,-309.392 L 147.364,-309.394 L 147.333,-309.396 L 147.303,-309.396
 L 143.054,-309.396 L 143.054,-319.982 L 134.96,-324.871 L 134.944,-324.882 L 134.928,-324.892 L 134.912,-324.903
 L 134.896,-324.914 L 134.881,-324.925 L 134.866,-324.937 L 134.85,-324.949 L 134.836,-324.961 L 134.821,-324.973
 L 134.807,-324.985 L 134.793,-324.998 L 134.779,-325.011 L 134.765,-325.024 L 134.751,-325.037 L 134.738,-325.051
 L 134.725,-325.065 L 134.712,-325.079 L 134.7,-325.093 L 134.687,-325.107 L 134.675,-325.122 L 134.663,-325.137
 L 134.652,-325.152 L 134.64,-325.168 L 134.629,-325.183 L 134.619,-325.199 L 134.608,-325.215 L 134.599,-325.232
 L 134.59,-325.249 L 134.581,-325.266 L 134.573,-325.284 L 134.565,-325.302 L 134.558,-325.32 L 134.551,-325.338
 L 134.545,-325.357 L 134.54,-325.376 L 134.534,-325.395 L 134.53,-325.415 L 134.525,-325.435 L 134.522,-325.456
 L 134.519,-325.476 L 134.516,-325.497 L 134.514,-325.518 L 134.512,-325.54 L 134.511,-325.562 L 134.51,-325.584
 L 134.51,-325.607 L 134.51,-325.629 L 134.51,-325.651 L 134.512,-325.673 L 134.513,-325.695 L 134.515,-325.716
 L 134.517,-325.737 L 134.52,-325.757 L 134.523,-325.777 L 134.526,-325.797 L 134.53,-325.816 L 134.534,-325.835
 L 134.539,-325.853 L 134.544,-325.872 L 134.549,-325.889 L 134.555,-325.907 L 134.561,-325.924 L 134.568,-325.941
 L 134.575,-325.957 L 134.583,-325.973 L 134.59,-325.989 L 134.599,-326.004 L 134.607,-326.019 L 134.616,-326.034
 L 134.626,-326.048 L 134.636,-326.063 L 134.647,-326.077 L 134.658,-326.091 L 134.669,-326.105 L 134.681,-326.119
 L 134.694,-326.133 L 134.706,-326.147 L 134.72,-326.16 L 134.734,-326.174 L 134.748,-326.187 L 134.763,-326.201
 L 134.779,-326.214 L 134.795,-326.227 L 134.811,-326.241 L 134.828,-326.254 L 134.846,-326.267 L 134.863,-326.279
 L 134.882,-326.292 L 134.901,-326.305 L 134.92,-326.318 L 134.94,-326.33 L 134.96,-326.342 L 143.054,-331.208
 L 143.053,-331.28 L 143.051,-331.351 L 143.047,-331.421 L 143.042,-331.491 L 143.035,-331.559 L 143.026,-331.627
 L 143.017,-331.694 L 143.005,-331.76 L 142.992,-331.826 L 142.978,-331.89 L 142.962,-331.954 L 142.944,-332.017
 L 142.925,-332.079 L 142.904,-332.14 L 142.882,-332.201 L 142.859,-332.26 L 142.833,-332.319 L 142.807,-332.377
 L 142.779,-332.435 L 142.749,-332.491 L 142.717,-332.547 L 142.685,-332.602 L 142.65,-332.656 L 142.614,-332.708
 L 142.576,-332.758 L 142.537,-332.806 L 142.495,-332.852 L 142.451,-332.895 L 142.406,-332.936 L 142.359,-332.974
 L 142.309,-333.011 L 142.258,-333.044 L 142.205,-333.076 L 142.15,-333.105 L 142.094,-333.132 L 142.035,-333.156
 L 141.975,-333.179 L 141.912,-333.199 L 141.848,-333.216 L 141.782,-333.231 L 141.714,-333.244 L 141.644,-333.255
 L 141.572,-333.263 L 141.498,-333.269 L 141.423,-333.272 L 141.345,-333.273 L 141.328,-333.273 L 141.311,-333.273
 L 141.294,-333.272 L 141.276,-333.271 L 141.258,-333.269 L 141.239,-333.268 L 141.22,-333.265 L 141.2,-333.263
 L 141.18,-333.26 L 141.16,-333.257 L 141.139,-333.254 L 141.118,-333.251 L 141.096,-333.247 L 141.074,-333.242
 L 141.052,-333.238 L 141.029,-333.233 L 141.006,-333.228 L 140.982,-333.222 L 140.958,-333.216 L 140.934,-333.21
 L 140.909,-333.204 L 140.884,-333.197 L 140.858,-333.19 L 140.833,-333.183 L 140.808,-333.175 L 140.783,-333.168
 L 140.759,-333.161 L 140.736,-333.153 L 140.713,-333.146 L 140.69,-333.138 L 140.668,-333.131 L 140.646,-333.123
 L 140.625,-333.116 L 140.605,-333.108 L 140.584,-333.1 L 140.565,-333.092 L 140.546,-333.085 L 140.527,-333.077
 L 140.509,-333.069 L 140.491,-333.061 L 140.474,-333.053 L 140.457,-333.045 L 140.441,-333.037 L 140.426,-333.029
 L 140.41,-333.02 L 140.396,-333.012 L 129.407,-326.461 L 129.407,-319.626 L 129.406,-319.566 L 129.403,-319.507
 L 129.398,-319.449 L 129.391,-319.392 L 129.383,-319.335 L 129.372,-319.279 L 129.359,-319.223 L 129.345,-319.168
 L 129.329,-319.114 L 129.31,-319.061 L 129.29,-319.008 L 129.268,-318.956 L 129.244,-318.905 L 129.218,-318.854
 L 129.19,-318.804 L 129.16,-318.754 L 129.128,-318.706 L 129.094,-318.658 L 129.058,-318.61 L 129.021,-318.563
 L 128.981,-318.517 L 128.94,-318.472 L 128.896,-318.427 L 128.852,-318.384 L 128.806,-318.342 L 128.76,-318.303
 L 128.714,-318.265 L 128.666,-318.229 L 128.618,-318.196 L 128.569,-318.164 L 128.52,-318.134 L 128.47,-318.106
 L 128.419,-318.08 L 128.368,-318.056 L 128.315,-318.034 L 128.263,-318.013 L 128.209,-317.995 L 128.155,-317.979
 L 128.1,-317.964 L 128.045,-317.952 L 127.989,-317.941 L 127.932,-317.932 L 127.874,-317.926 L 127.816,-317.921
 L 127.757,-317.918 L 127.698,-317.917 L 127.636,-317.918 L 127.575,-317.921 L 127.516,-317.925 L 127.456,-317.932
 L 127.398,-317.94 L 127.341,-317.951 L 127.284,-317.963 L 127.228,-317.977 L 127.173,-317.993 L 127.119,-318.011
 L 127.066,-318.031 L 127.013,-318.053 L 126.961,-318.076 L 126.91,-318.102 L 126.86,-318.129 L 126.81,-318.158
 L 126.762,-318.189 L 126.714,-318.222 L 126.667,-318.257 L 126.621,-318.294 L 126.576,-318.332 L 126.531,-318.373
 L 126.487,-318.415 L 126.445,-318.459 L 126.404,-318.504 L 126.366,-318.549 L 126.329,-318.595 L 126.294,-318.642
 L 126.261,-318.69 L 126.23,-318.738 L 126.201,-318.788 L 126.174,-318.838 L 126.148,-318.889 L 126.125,-318.941
 L 126.103,-318.994 L 126.083,-319.047 L 126.065,-319.101 L 126.049,-319.156 L 126.035,-319.212 L 126.023,-319.269
 L 126.012,-319.326 L 126.004,-319.384 L 125.997,-319.444 L 125.993,-319.503 L 125.99,-319.564 L 125.989,-319.626
 L 125.989,-326.461 L 122.571,-326.461 L 122.571,-319.626 L 122.57,-319.564 L 122.567,-319.503 L 122.563,-319.444
 L 122.556,-319.384 L 122.548,-319.326 L 122.537,-319.269 L 122.525,-319.212 L 122.511,-319.156 L 122.495,-319.101
 L 122.477,-319.047 L 122.457,-318.994 L 122.436,-318.941 L 122.412,-318.889 L 122.387,-318.838 L 122.359,-318.788
 L 122.33,-318.738 L 122.299,-318.69 L 122.266,-318.642 L 122.231,-318.595 L 122.194,-318.549 L 122.156,-318.504
 L 122.115,-318.459 L 122.073,-318.415 L 122.029,-318.373 L 121.985,-318.332 L 121.939,-318.294 L 121.893,-318.257
 L 121.846,-318.222 L 121.798,-318.189 L 121.75,-318.158 L 121.7,-318.129 L 121.65,-318.102 L 121.599,-318.076
 L 121.547,-318.053 L 121.495,-318.031 L 121.441,-318.011 L 121.387,-317.993 L 121.332,-317.977 L 121.276,-317.963
 L 121.219,-317.951 L 121.162,-317.94 L 121.103,-317.932 L 121.044,-317.925 L 120.984,-317.921 L 120.924,-317.918
 L 120.862,-317.917 L 120.801,-317.918 L 120.74,-317.921 L 120.68,-317.925 L 120.621,-317.932 L 120.563,-317.94
 L 120.505,-317.951 L 120.449,-317.963 L 120.393,-317.977 L 120.338,-317.993 L 120.283,-318.011 L 120.23,-318.031
 L 120.177,-318.053 L 120.126,-318.076 L 120.075,-318.102 L 120.024,-318.129 L 119.975,-318.158 L 119.926,-318.189
 L 119.879,-318.222 L 119.832,-318.257 L 119.786,-318.294 L 119.74,-318.332 L 119.696,-318.373 L 119.652,-318.415
 L 119.609,-318.459 L 119.569,-318.504 L 119.53,-318.549 L 119.494,-318.595 L 119.459,-318.642 L 119.426,-318.69
 L 119.395,-318.738 L 119.365,-318.788 L 119.338,-318.838 L 119.313,-318.889 L 119.289,-318.941 L 119.267,-318.994
 L 119.248,-319.047 L 119.23,-319.101 L 119.214,-319.156 L 119.2,-319.212 L 119.187,-319.269 L 119.177,-319.326
 L 119.169,-319.384 L 119.162,-319.444 L 119.157,-319.503 L 119.154,-319.564 L 119.153,-319.626 L 119.153,-326.461
 L 108.141,-333.012 L 108.101,-333.034 L 108.062,-333.056 L 108.023,-333.076 L 107.983,-333.095 L 107.943,-333.113
 L 107.904,-333.131 L 107.864,-333.147 L 107.824,-333.162 L 107.784,-333.176 L 107.744,-333.19 L 107.704,-333.202
 L 107.664,-333.213 L 107.623,-333.224 L 107.583,-333.233 L 107.542,-333.242 L 107.502,-333.249 L 107.461,-333.255
 L 107.42,-333.261 L 107.379,-333.265 L 107.338,-333.269 L 107.297,-333.271 L 107.256,-333.273 L 107.215,-333.273
 L 107.133,-333.272 L 107.054,-333.269 L 106.977,-333.263 L 106.902,-333.255 L 106.829,-333.244 L 106.758,-333.231
 L 106.69,-333.216 L 106.624,-333.199 L 106.559,-333.179 L 106.497,-333.156 L 106.437,-333.132 L 106.38,-333.105
 L 106.324,-333.076 L 106.27,-333.044 L 106.219,-333.011 L 106.17,-332.974 L 106.123,-332.936 L 106.078,-332.895
 L 106.035,-332.852 L 105.995,-332.806 L 105.956,-332.758 L 105.92,-332.708 L 105.886,-332.656 L 105.854,-332.602
 L 105.823,-332.547 L 105.793,-332.491 L 105.765,-332.435 L 105.739,-332.377 L 105.714,-332.319 L 105.69,-332.26
 L 105.668,-332.201 L 105.647,-332.14 L 105.628,-332.079 L 105.61,-332.017 L 105.593,-331.954 L 105.578,-331.89
 L 105.564,-331.826 L 105.552,-331.76 L 105.541,-331.694 L 105.532,-331.627 L 105.524,-331.559 L 105.518,-331.491
 L 105.513,-331.421 L 105.509,-331.351 L 105.507,-331.28 L 105.506,-331.208 L 113.6,-326.342 L 113.62,-326.33
 L 113.64,-326.318 L 113.659,-326.305 L 113.678,-326.292 L 113.697,-326.279 L 113.715,-326.267 L 113.732,-326.254
 L 113.749,-326.241 L 113.765,-326.227 L 113.781,-326.214 L 113.797,-326.201 L 113.812,-326.187 L 113.826,-326.174
 L 113.84,-326.16 L 113.854,-326.147 L 113.867,-326.133 L 113.879,-326.119 L 113.891,-326.105 L 113.903,-326.091
 L 113.914,-326.077 L 113.924,-326.063 L 113.934,-326.048 L 113.944,-326.034 L 113.953,-326.019 L 113.961,-326.004
 L 113.97,-325.989 L 113.978,-325.973 L 113.985,-325.957 L 113.992,-325.941 L 113.999,-325.924 L 114.005,-325.907
 L 114.011,-325.889 L 114.016,-325.872 L 114.021,-325.853 L 114.026,-325.835 L 114.03,-325.816 L 114.034,-325.797
 L 114.038,-325.777 L 114.041,-325.757 L 114.043,-325.737 L 114.045,-325.716 L 114.047,-325.695 L 114.049,-325.673
 L 114.05,-325.651 L 114.05,-325.629 L 114.05,-325.607 L 114.05,-325.584 L 114.049,-325.562 L 114.048,-325.54
 L 114.047,-325.518 L 114.044,-325.497 L 114.042,-325.476 L 114.038,-325.456 L 114.035,-325.435 L 114.03,-325.415
 L 114.026,-325.395 L 114.021,-325.376 L 114.015,-325.357 L 114.009,-325.338 L 114.002,-325.32 L 113.995,-325.302
 L 113.987,-325.284 L 113.979,-325.266 L 113.97,-325.249 L 113.961,-325.232 L 113.952,-325.215 L 113.942,-325.199
 L 113.931,-325.183 L 113.92,-325.168 L 113.908,-325.152 L 113.897,-325.137 L 113.885,-325.122 L 113.873,-325.107
 L 113.86,-325.093 L 113.848,-325.079 L 113.835,-325.065 L 113.822,-325.051 L 113.809,-325.037 L 113.795,-325.024
 L 113.781,-325.011 L 113.768,-324.998 L 113.753,-324.985 L 113.739,-324.973 L 113.724,-324.961 L 113.71,-324.949
 L 113.695,-324.937 L 113.679,-324.925 L 113.664,-324.914 L 113.648,-324.903 L 113.632,-324.892 L 113.616,-324.882
 L 113.6,-324.871 L 105.506,-319.982 L 105.506,-309.396 L 101.258,-309.396 L 101.227,-309.396 L 101.197,-309.394
 L 101.167,-309.392 L 101.137,-309.389 L 101.108,-309.384 L 101.079,-309.379 L 101.051,-309.373 L 101.023,-309.366
 L 100.995,-309.358 L 100.968,-309.349 L 100.942,-309.339 L 100.915,-309.328 L 100.889,-309.317 L 100.864,-309.304
 L 100.839,-309.29 L 100.814,-309.276 L 100.79,-309.26 L 100.766,-309.244 L 100.742,-309.226 L 100.719,-309.208
 L 100.697,-309.188 L 100.674,-309.168 L 100.652,-309.147 L 100.631,-309.125 L 100.611,-309.103 L 100.592,-309.08
 L 100.573,-309.057 L 100.556,-309.034 L 100.539,-309.01 L 100.524,-308.985 L 100.509,-308.961 L 100.496,-308.936
 L 100.483,-308.91 L 100.471,-308.884 L 100.46,-308.858 L 100.45,-308.831 L 100.441,-308.804 L 100.433,-308.777
 L 100.426,-308.749 L 100.42,-308.72 L 100.415,-308.692 L 100.411,-308.662 L 100.408,-308.633 L 100.405,-308.603
 L 100.404,-308.573 L 100.403,-308.542 L 100.404,-308.528 L 100.406,-308.512 L 100.41,-308.493 L 100.415,-308.471
 L 100.422,-308.447 L 100.431,-308.421 L 100.441,-308.391 L 100.452,-308.359 L 100.465,-308.325 L 100.48,-308.288
 L 100.496,-308.248 L 100.513,-308.206 L 100.532,-308.161 L 100.553,-308.113 L 100.575,-308.063 L 100.599,-308.01
 L 100.624,-307.955 L 100.65,-307.897 L 100.679,-307.837 L 100.708,-307.774 L 100.74,-307.708 L 100.772,-307.639
 L 100.807,-307.569 L 100.842,-307.496 L 100.879,-307.421 L 100.916,-307.345 L 100.954,-307.268 L 100.993,-307.189
 L 101.033,-307.109 L 101.073,-307.028 L 101.115,-306.945 L 101.157,-306.86 L 101.2,-306.774 L 101.244,-306.687
 L 101.289,-306.598 L 101.335,-306.508 L 101.382,-306.417 L 101.429,-306.324 L 101.477,-306.229 L 101.526,-306.133
 L 101.577,-306.036 L 101.627,-305.937 L 101.679,-305.837 L 101.732,-305.735 L 101.785,-305.632 L 101.839,-305.527
 L 101.894,-305.422 L 101.95,-305.315 L 102.006,-305.208 L 102.062,-305.1 L 102.119,-304.992 L 102.176,-304.882
 L 102.234,-304.772 L 102.293,-304.661 L 102.352,-304.549 L 102.411,-304.437 L 102.471,-304.323 L 102.531,-304.209
 L 102.592,-304.095 L 102.653,-303.979 L 102.715,-303.863 L 102.778,-303.746 L 102.84,-303.628 L 102.904,-303.509
 L 102.968,-303.39 L 103.032,-303.27 L 103.097,-303.149 L 103.162,-303.027 L 103.228,-302.905 L 103.294,-302.782
 L 103.747,-301.938 L 104.311,-300.889 L 104.675,-300.211 L 104.794,-299.99 L 104.967,-299.668 L 105.136,-299.355
 L 105.352,-298.954 L 105.456,-298.761 L 105.658,-298.387 L 105.756,-298.206 L 105.898,-297.944 L 106.031,-297.698
 L 106.191,-297.403 L 106.33,-297.146 L 106.448,-296.927 L 106.499,-296.832 L 106.566,-296.707 L 106.622,-296.603
 L 106.665,-296.523 L 106.709,-296.443 L 106.752,-296.362 L 106.796,-296.282 L 106.84,-296.202 L 106.884,-296.122
 L 106.928,-296.042 L 106.973,-295.962 L 107.017,-295.883 L 107.062,-295.803 L 107.107,-295.724 L 107.151,-295.644
 L 107.197,-295.565 L 107.242,-295.485 L 107.287,-295.406 L 107.332,-295.327 L 107.378,-295.248 L 107.424,-295.169
 L 107.47,-295.09 L 107.515,-295.012 L 107.562,-294.933 L 107.608,-294.854 L 107.654,-294.776 L 107.701,-294.698
 L 107.748,-294.62 L 107.796,-294.542 L 107.844,-294.464 L 107.893,-294.387 L 107.942,-294.31 L 107.991,-294.234
 L 108.042,-294.157 L 108.092,-294.081 L 108.143,-294.005 L 108.195,-293.93 L 108.247,-293.854 L 108.3,-293.779
 L 108.353,-293.704 L 108.406,-293.63 L 108.46,-293.556 L 108.515,-293.482 L 108.57,-293.408 L 108.625,-293.334
 L 108.682,-293.261 L 108.738,-293.188 L 108.795,-293.116 L 108.853,-293.043 L 108.977,-292.889 L 109.103,-292.736
 L 109.229,-292.585 L 109.357,-292.435 L 109.486,-292.287 L 109.617,-292.14 L 109.748,-291.995 L 109.881,-291.851
 L 110.014,-291.708 L 110.149,-291.567 L 110.285,-291.427 L 110.423,-291.289 L 110.561,-291.152 L 110.701,-291.017
 L 110.841,-290.883 L 110.983,-290.75 L 111.126,-290.619 L 111.271,-290.49 L 111.416,-290.362 L 111.563,-290.235
 L 111.71,-290.109 L 111.859,-289.986 L 112.009,-289.863 L 112.16,-289.742 L 112.312,-289.623 L 112.465,-289.505
 L 112.619,-289.389 L 112.773,-289.275 L 112.929,-289.162 L 113.085,-289.051 L 113.242,-288.942 L 113.4,-288.834
 L 113.559,-288.728 L 113.718,-288.624 L 113.879,-288.521 L 114.04,-288.42 L 114.202,-288.321 L 114.365,-288.223
 L 114.529,-288.127 L 114.694,-288.033 L 114.859,-287.94 L 115.026,-287.849 L 115.193,-287.76 L 115.361,-287.672
 L 115.53,-287.586 L 115.7,-287.502 L 115.871,-287.419 L 116.042,-287.338 L 116.214,-287.258 L 116.387,-287.181
 L 116.561,-287.105 L 116.735,-287.031 L 116.911,-286.958 L 117.087,-286.887 L 117.263,-286.818 L 117.441,-286.751
 L 117.619,-286.685 L 117.798,-286.621 L 117.978,-286.559 L 118.159,-286.498 L 118.34,-286.439 L 118.522,-286.382
 L 118.705,-286.327 L 118.889,-286.273 L 119.073,-286.221 L 119.258,-286.171 L 119.444,-286.122 L 119.631,-286.075
 L 119.818,-286.03 L 120.006,-285.986 L 120.195,-285.945 L 120.384,-285.905 L 120.574,-285.868 L 120.764,-285.832
 L 120.955,-285.798 L 121.146,-285.767 L 121.338,-285.737 L 121.53,-285.709 L 121.723,-285.683 L 121.917,-285.658
 L 122.111,-285.636 L 122.305,-285.616 L 122.5,-285.598 L 122.696,-285.581 L 122.892,-285.567 L 123.089,-285.554
 L 123.286,-285.544 L 123.484,-285.535 L 123.682,-285.528 L 123.881,-285.523 L 124.08,-285.521 L 124.28,-285.52
 z
M 114.86,-307.688 L 114.814,-307.689 L 114.77,-307.691 L 114.725,-307.694 L 114.681,-307.697 L 114.637,-307.701
 L 114.593,-307.706 L 114.549,-307.712 L 114.505,-307.718 L 114.462,-307.726 L 114.419,-307.734 L 114.376,-307.742
 L 114.334,-307.752 L 114.291,-307.762 L 114.249,-307.773 L 114.207,-307.785 L 114.165,-307.798 L 114.124,-307.811
 L 114.083,-307.825 L 114.042,-307.84 L 114.001,-307.856 L 113.96,-307.872 L 113.92,-307.889 L 113.88,-307.907
 L 113.84,-307.925 L 113.801,-307.944 L 113.762,-307.964 L 113.724,-307.984 L 113.686,-308.005 L 113.648,-308.026
 L 113.611,-308.048 L 113.574,-308.071 L 113.538,-308.094 L 113.502,-308.118 L 113.466,-308.142 L 113.431,-308.167
 L 113.396,-308.192 L 113.362,-308.218 L 113.328,-308.245 L 113.294,-308.272 L 113.261,-308.3 L 113.228,-308.328
 L 113.196,-308.357 L 113.164,-308.386 L 113.132,-308.416 L 113.101,-308.447 L 113.071,-308.478 L 113.041,-308.51
 L 113.011,-308.542 L 112.982,-308.574 L 112.954,-308.607 L 112.926,-308.64 L 112.899,-308.674 L 112.872,-308.708
 L 112.846,-308.742 L 112.821,-308.777 L 112.796,-308.812 L 112.772,-308.847 L 112.748,-308.883 L 112.725,-308.92
 L 112.702,-308.957 L 112.681,-308.994 L 112.659,-309.031 L 112.638,-309.07 L 112.618,-309.108 L 112.599,-309.147
 L 112.58,-309.186 L 112.561,-309.226 L 112.543,-309.266 L 112.526,-309.306 L 112.51,-309.347 L 112.494,-309.387
 L 112.479,-309.428 L 112.465,-309.47 L 112.452,-309.511 L 112.439,-309.553 L 112.428,-309.595 L 112.416,-309.637
 L 112.406,-309.679 L 112.397,-309.722 L 112.388,-309.765 L 112.38,-309.808 L 112.373,-309.851 L 112.366,-309.895
 L 112.36,-309.938 L 112.355,-309.982 L 112.351,-310.026 L 112.348,-310.071 L 112.345,-310.115 L 112.343,-310.16
 L 112.342,-310.205 L 112.342,-310.251 L 112.342,-313.668 L 112.342,-313.714 L 112.343,-313.759 L 112.345,-313.804
 L 112.348,-313.848 L 112.351,-313.893 L 112.355,-313.938 L 112.36,-313.982 L 112.366,-314.026 L 112.373,-314.07
 L 112.38,-314.113 L 112.388,-314.157 L 112.397,-314.2 L 112.406,-314.243 L 112.416,-314.286 L 112.428,-314.329
 L 112.439,-314.372 L 112.452,-314.414 L 112.465,-314.456 L 112.479,-314.499 L 112.494,-314.54 L 112.51,-314.582
 L 112.526,-314.624 L 112.543,-314.665 L 112.561,-314.706 L 112.58,-314.747 L 112.599,-314.787 L 112.618,-314.826
 L 112.638,-314.865 L 112.659,-314.903 L 112.681,-314.941 L 112.702,-314.978 L 112.725,-315.015 L 112.748,-315.051
 L 112.772,-315.087 L 112.796,-315.122 L 112.821,-315.156 L 112.846,-315.19 L 112.872,-315.224 L 112.899,-315.257
 L 112.926,-315.289 L 112.954,-315.321 L 112.982,-315.352 L 113.011,-315.383 L 113.041,-315.413 L 113.071,-315.443
 L 113.101,-315.472 L 113.132,-315.501 L 113.164,-315.529 L 113.196,-315.557 L 113.228,-315.584 L 113.261,-315.611
 L 113.294,-315.637 L 113.328,-315.662 L 113.362,-315.688 L 113.396,-315.712 L 113.431,-315.737 L 113.466,-315.76
 L 113.502,-315.784 L 113.538,-315.806 L 113.574,-315.828 L 113.611,-315.85 L 113.648,-315.871 L 113.686,-315.892
 L 113.724,-315.912 L 113.762,-315.932 L 113.801,-315.951 L 113.84,-315.97 L 113.88,-315.989 L 113.92,-316.006
 L 113.96,-316.023 L 114.001,-316.04 L 114.042,-316.055 L 114.083,-316.07 L 114.124,-316.084 L 114.165,-316.098
 L 114.207,-316.11 L 114.249,-316.122 L 114.291,-316.133 L 114.334,-316.143 L 114.376,-316.153 L 114.419,-316.162
 L 114.462,-316.17 L 114.505,-316.177 L 114.549,-316.184 L 114.593,-316.189 L 114.637,-316.194 L 114.681,-316.198
 L 114.725,-316.202 L 114.77,-316.204 L 114.814,-316.206 L 114.86,-316.208 L 114.905,-316.208 L 114.95,-316.208
 L 114.995,-316.206 L 115.04,-316.204 L 115.085,-316.202 L 115.129,-316.198 L 115.173,-316.194 L 115.217,-316.189
 L 115.261,-316.184 L 115.304,-316.177 L 115.348,-316.17 L 115.391,-316.162 L 115.434,-316.153 L 115.476,-316.143
 L 115.518,-316.133 L 115.561,-316.122 L 115.603,-316.11 L 115.644,-316.098 L 115.686,-316.084 L 115.727,-316.07
 L 115.768,-316.055 L 115.809,-316.04 L 115.849,-316.023 L 115.89,-316.006 L 115.93,-315.988 L 115.969,-315.97
 L 116.008,-315.951 L 116.047,-315.932 L 116.085,-315.912 L 116.123,-315.891 L 116.161,-315.87 L 116.197,-315.849
 L 116.234,-315.827 L 116.27,-315.804 L 116.305,-315.781 L 116.34,-315.757 L 116.375,-315.733 L 116.409,-315.708
 L 116.443,-315.683 L 116.476,-315.657 L 116.509,-315.63 L 116.542,-315.603 L 116.574,-315.576 L 116.605,-315.548
 L 116.636,-315.519 L 116.667,-315.49 L 116.697,-315.46 L 116.726,-315.43 L 116.756,-315.4 L 116.784,-315.369
 L 116.812,-315.337 L 116.84,-315.305 L 116.867,-315.273 L 116.893,-315.24 L 116.919,-315.207 L 116.944,-315.173
 L 116.969,-315.139 L 116.994,-315.104 L 117.017,-315.069 L 117.041,-315.033 L 117.063,-314.997 L 117.085,-314.961
 L 117.107,-314.924 L 117.128,-314.887 L 117.148,-314.849 L 117.168,-314.811 L 117.188,-314.772 L 117.207,-314.733
 L 117.225,-314.693 L 117.243,-314.653 L 117.26,-314.613 L 117.276,-314.572 L 117.292,-314.531 L 117.307,-314.49
 L 117.321,-314.449 L 117.334,-314.408 L 117.347,-314.366 L 117.359,-314.324 L 117.37,-314.282 L 117.38,-314.24
 L 117.39,-314.197 L 117.398,-314.154 L 117.406,-314.111 L 117.414,-314.068 L 117.42,-314.024 L 117.426,-313.981
 L 117.431,-313.937 L 117.435,-313.893 L 117.438,-313.848 L 117.441,-313.804 L 117.443,-313.759 L 117.444,-313.714
 L 117.444,-313.668 L 117.444,-310.251 L 117.444,-310.205 L 117.443,-310.16 L 117.441,-310.115 L 117.438,-310.071
 L 117.435,-310.026 L 117.431,-309.982 L 117.426,-309.938 L 117.42,-309.895 L 117.414,-309.851 L 117.406,-309.808
 L 117.398,-309.765 L 117.39,-309.722 L 117.38,-309.679 L 117.37,-309.637 L 117.359,-309.595 L 117.347,-309.553
 L 117.334,-309.511 L 117.321,-309.47 L 117.307,-309.428 L 117.292,-309.387 L 117.276,-309.347 L 117.26,-309.306
 L 117.243,-309.266 L 117.225,-309.226 L 117.207,-309.186 L 117.188,-309.147 L 117.168,-309.108 L 117.148,-309.07
 L 117.128,-309.031 L 117.107,-308.994 L 117.085,-308.957 L 117.063,-308.92 L 117.041,-308.883 L 117.017,-308.847
 L 116.994,-308.812 L 116.969,-308.777 L 116.944,-308.742 L 116.919,-308.708 L 116.893,-308.674 L 116.867,-308.64
 L 116.84,-308.607 L 116.812,-308.574 L 116.784,-308.542 L 116.756,-308.51 L 116.726,-308.478 L 116.697,-308.447
 L 116.667,-308.416 L 116.636,-308.386 L 116.605,-308.357 L 116.574,-308.328 L 116.542,-308.3 L 116.509,-308.272
 L 116.476,-308.245 L 116.443,-308.218 L 116.409,-308.192 L 116.375,-308.167 L 116.34,-308.142 L 116.305,-308.118
 L 116.27,-308.094 L 116.234,-308.071 L 116.197,-308.048 L 116.161,-308.026 L 116.123,-308.005 L 116.085,-307.984
 L 116.047,-307.964 L 116.008,-307.944 L 115.969,-307.925 L 115.93,-307.907 L 115.89,-307.889 L 115.849,-307.872
 L 115.809,-307.856 L 115.768,-307.84 L 115.727,-307.825 L 115.686,-307.811 L 115.644,-307.798 L 115.603,-307.785
 L 115.561,-307.773 L 115.518,-307.762 L 115.476,-307.752 L 115.434,-307.742 L 115.391,-307.734 L 115.348,-307.726
 L 115.304,-307.718 L 115.261,-307.712 L 115.217,-307.706 L 115.173,-307.701 L 115.129,-307.697 L 115.085,-307.694
 L 115.04,-307.691 L 114.995,-307.689 L 114.95,-307.688 L 114.905,-307.688 z
M 133.61,-307.688 L 133.565,-307.689 L 133.52,-307.691 L 133.475,-307.694 L 133.431,-307.697 L 133.387,-307.701
 L 133.343,-307.706 L 133.299,-307.712 L 133.255,-307.718 L 133.212,-307.726 L 133.169,-307.734 L 133.126,-307.742
 L 133.084,-307.752 L 133.041,-307.762 L 132.999,-307.773 L 132.957,-307.785 L 132.916,-307.798 L 132.874,-307.811
 L 132.833,-307.825 L 132.792,-307.84 L 132.751,-307.856 L 132.71,-307.872 L 132.67,-307.889 L 132.63,-307.907
 L 132.59,-307.925 L 132.551,-307.944 L 132.512,-307.964 L 132.474,-307.984 L 132.436,-308.005 L 132.398,-308.026
 L 132.361,-308.048 L 132.324,-308.071 L 132.288,-308.094 L 132.252,-308.118 L 132.216,-308.142 L 132.181,-308.167
 L 132.146,-308.192 L 132.112,-308.218 L 132.078,-308.245 L 132.044,-308.272 L 132.011,-308.3 L 131.978,-308.328
 L 131.946,-308.357 L 131.914,-308.386 L 131.882,-308.416 L 131.851,-308.447 L 131.82,-308.478 L 131.79,-308.51
 L 131.761,-308.542 L 131.732,-308.574 L 131.704,-308.607 L 131.676,-308.64 L 131.649,-308.674 L 131.622,-308.708
 L 131.596,-308.742 L 131.571,-308.777 L 131.546,-308.812 L 131.522,-308.847 L 131.498,-308.883 L 131.475,-308.92
 L 131.452,-308.957 L 131.431,-308.994 L 131.409,-309.031 L 131.388,-309.07 L 131.368,-309.108 L 131.349,-309.147
 L 131.33,-309.186 L 131.311,-309.226 L 131.294,-309.266 L 131.276,-309.306 L 131.26,-309.347 L 131.244,-309.387
 L 131.23,-309.428 L 131.215,-309.47 L 131.202,-309.511 L 131.189,-309.553 L 131.178,-309.595 L 131.167,-309.637
 L 131.156,-309.679 L 131.147,-309.722 L 131.138,-309.765 L 131.13,-309.808 L 131.123,-309.851 L 131.116,-309.895
 L 131.111,-309.938 L 131.106,-309.982 L 131.101,-310.026 L 131.098,-310.071 L 131.095,-310.115 L 131.093,-310.16
 L 131.092,-310.205 L 131.092,-310.251 L 131.092,-313.668 L 131.092,-313.714 L 131.093,-313.759 L 131.095,-313.804
 L 131.098,-313.848 L 131.101,-313.893 L 131.106,-313.937 L 131.111,-313.981 L 131.116,-314.024 L 131.123,-314.068
 L 131.13,-314.111 L 131.138,-314.154 L 131.147,-314.197 L 131.156,-314.24 L 131.167,-314.282 L 131.178,-314.324
 L 131.189,-314.366 L 131.202,-314.408 L 131.215,-314.449 L 131.23,-314.49 L 131.244,-314.531 L 131.26,-314.572
 L 131.276,-314.613 L 131.294,-314.653 L 131.311,-314.693 L 131.33,-314.733 L 131.349,-314.772 L 131.368,-314.811
 L 131.388,-314.849 L 131.409,-314.887 L 131.431,-314.924 L 131.452,-314.961 L 131.475,-314.997 L 131.498,-315.033
 L 131.522,-315.069 L 131.546,-315.104 L 131.571,-315.139 L 131.596,-315.173 L 131.622,-315.207 L 131.649,-315.24
 L 131.676,-315.273 L 131.704,-315.305 L 131.732,-315.337 L 131.761,-315.369 L 131.79,-315.4 L 131.82,-315.43
 L 131.851,-315.46 L 131.882,-315.49 L 131.914,-315.519 L 131.946,-315.548 L 131.978,-315.576 L 132.011,-315.603
 L 132.044,-315.63 L 132.078,-315.657 L 132.112,-315.683 L 132.146,-315.708 L 132.181,-315.733 L 132.216,-315.757
 L 132.252,-315.781 L 132.288,-315.804 L 132.324,-315.827 L 132.361,-315.849 L 132.398,-315.87 L 132.436,-315.891
 L 132.474,-315.912 L 132.512,-315.932 L 132.551,-315.951 L 132.59,-315.97 L 132.63,-315.988 L 132.67,-316.006
 L 132.71,-316.023 L 132.751,-316.04 L 132.792,-316.055 L 132.833,-316.07 L 132.874,-316.084 L 132.916,-316.098
 L 132.957,-316.11 L 132.999,-316.122 L 133.041,-316.133 L 133.084,-316.143 L 133.126,-316.153 L 133.169,-316.162
 L 133.212,-316.17 L 133.255,-316.177 L 133.299,-316.184 L 133.343,-316.189 L 133.387,-316.194 L 133.431,-316.198
 L 133.475,-316.202 L 133.52,-316.204 L 133.565,-316.206 L 133.61,-316.208 L 133.655,-316.208 L 133.7,-316.208
 L 133.745,-316.206 L 133.79,-316.204 L 133.835,-316.202 L 133.879,-316.198 L 133.923,-316.194 L 133.967,-316.189
 L 134.011,-316.184 L 134.055,-316.177 L 134.098,-316.17 L 134.141,-316.162 L 134.184,-316.153 L 134.226,-316.143
 L 134.269,-316.133 L 134.311,-316.122 L 134.353,-316.11 L 134.394,-316.098 L 134.436,-316.084 L 134.477,-316.07
 L 134.518,-316.055 L 134.559,-316.04 L 134.6,-316.023 L 134.64,-316.006 L 134.68,-315.989 L 134.72,-315.97
 L 134.759,-315.951 L 134.798,-315.932 L 134.836,-315.912 L 134.874,-315.892 L 134.912,-315.871 L 134.949,-315.85
 L 134.986,-315.828 L 135.022,-315.806 L 135.058,-315.784 L 135.094,-315.76 L 135.129,-315.737 L 135.164,-315.712
 L 135.198,-315.688 L 135.232,-315.662 L 135.266,-315.637 L 135.299,-315.611 L 135.332,-315.584 L 135.364,-315.557
 L 135.396,-315.529 L 135.428,-315.501 L 135.459,-315.472 L 135.49,-315.443 L 135.52,-315.413 L 135.549,-315.383
 L 135.578,-315.352 L 135.606,-315.321 L 135.634,-315.289 L 135.661,-315.257 L 135.688,-315.224 L 135.714,-315.19
 L 135.739,-315.156 L 135.764,-315.122 L 135.788,-315.087 L 135.812,-315.051 L 135.835,-315.015 L 135.858,-314.978
 L 135.879,-314.941 L 135.901,-314.903 L 135.921,-314.865 L 135.942,-314.826 L 135.961,-314.787 L 135.98,-314.747
 L 135.999,-314.706 L 136.016,-314.665 L 136.034,-314.624 L 136.05,-314.582 L 136.066,-314.54 L 136.081,-314.499
 L 136.095,-314.456 L 136.108,-314.414 L 136.121,-314.372 L 136.132,-314.329 L 136.144,-314.286 L 136.154,-314.243
 L 136.163,-314.2 L 136.172,-314.157 L 136.18,-314.113 L 136.187,-314.07 L 136.194,-314.026 L 136.2,-313.982
 L 136.205,-313.938 L 136.209,-313.893 L 136.212,-313.848 L 136.215,-313.804 L 136.217,-313.759 L 136.218,-313.714
 L 136.218,-313.668 L 136.218,-310.251 L 136.218,-310.205 L 136.217,-310.16 L 136.215,-310.115 L 136.212,-310.071
 L 136.209,-310.026 L 136.205,-309.982 L 136.2,-309.938 L 136.194,-309.895 L 136.187,-309.851 L 136.18,-309.808
 L 136.172,-309.765 L 136.163,-309.722 L 136.154,-309.679 L 136.144,-309.637 L 136.132,-309.595 L 136.121,-309.553
 L 136.108,-309.511 L 136.095,-309.47 L 136.081,-309.428 L 136.066,-309.387 L 136.05,-309.347 L 136.034,-309.306
 L 136.016,-309.266 L 135.999,-309.226 L 135.98,-309.186 L 135.961,-309.147 L 135.942,-309.108 L 135.921,-309.07
 L 135.901,-309.031 L 135.879,-308.994 L 135.858,-308.957 L 135.835,-308.92 L 135.812,-308.883 L 135.788,-308.847
 L 135.764,-308.812 L 135.739,-308.777 L 135.714,-308.742 L 135.688,-308.708 L 135.661,-308.674 L 135.634,-308.64
 L 135.606,-308.607 L 135.578,-308.574 L 135.549,-308.542 L 135.52,-308.51 L 135.49,-308.478 L 135.459,-308.447
 L 135.428,-308.416 L 135.396,-308.386 L 135.364,-308.357 L 135.332,-308.328 L 135.299,-308.3 L 135.266,-308.272
 L 135.232,-308.245 L 135.198,-308.218 L 135.164,-308.192 L 135.129,-308.167 L 135.094,-308.142 L 135.058,-308.118
 L 135.022,-308.094 L 134.986,-308.071 L 134.949,-308.048 L 134.912,-308.026 L 134.874,-308.005 L 134.836,-307.984
 L 134.798,-307.964 L 134.759,-307.944 L 134.72,-307.925 L 134.68,-307.907 L 134.64,-307.889 L 134.6,-307.872
 L 134.559,-307.856 L 134.518,-307.84 L 134.477,-307.825 L 134.436,-307.811 L 134.394,-307.798 L 134.353,-307.785
 L 134.311,-307.773 L 134.269,-307.762 L 134.226,-307.752 L 134.184,-307.742 L 134.141,-307.734 L 134.098,-307.726
 L 134.055,-307.718 L 134.011,-307.712 L 133.967,-307.706 L 133.923,-307.701 L 133.879,-307.697 L 133.835,-307.694
 L 133.79,-307.691 L 133.745,-307.689 L 133.7,-307.688 L 133.655,-307.688 z
M 124.193,-287.229 L 124.108,-287.231 L 124.022,-287.234 L 123.937,-287.238 L 123.853,-287.244 L 123.77,-287.251
 L 123.686,-287.259 L 123.604,-287.268 L 123.522,-287.279 L 123.44,-287.291 L 123.359,-287.304 L 123.279,-287.319
 L 123.199,-287.334 L 123.119,-287.351 L 123.04,-287.37 L 122.962,-287.389 L 122.884,-287.41 L 122.807,-287.432
 L 122.73,-287.455 L 122.654,-287.48 L 122.578,-287.505 L 122.503,-287.532 L 122.429,-287.561 L 122.355,-287.59
 L 122.282,-287.62 L 122.209,-287.652 L 122.137,-287.684 L 122.066,-287.718 L 121.995,-287.752 L 121.925,-287.787
 L 121.856,-287.823 L 121.787,-287.861 L 121.719,-287.899 L 121.652,-287.938 L 121.586,-287.979 L 121.52,-288.02
 L 121.455,-288.062 L 121.39,-288.105 L 121.326,-288.149 L 121.263,-288.195 L 121.2,-288.241 L 121.139,-288.288
 L 121.077,-288.336 L 121.017,-288.385 L 120.957,-288.435 L 120.898,-288.487 L 120.839,-288.539 L 120.782,-288.591
 L 120.725,-288.645 L 120.67,-288.7 L 120.615,-288.755 L 120.561,-288.811 L 120.508,-288.869 L 120.456,-288.927
 L 120.405,-288.985 L 120.354,-289.045 L 120.305,-289.106 L 120.256,-289.167 L 120.209,-289.229 L 120.162,-289.292
 L 120.116,-289.356 L 120.071,-289.421 L 120.027,-289.487 L 119.984,-289.553 L 119.942,-289.621 L 119.901,-289.689
 L 119.86,-289.758 L 119.821,-289.828 L 119.782,-289.899 L 119.744,-289.97 L 119.708,-290.042 L 119.673,-290.115
 L 119.638,-290.188 L 119.605,-290.262 L 119.573,-290.336 L 119.542,-290.411 L 119.513,-290.487 L 119.484,-290.563
 L 119.457,-290.64 L 119.43,-290.717 L 119.405,-290.795 L 119.381,-290.874 L 119.358,-290.953 L 119.336,-291.032
 L 119.315,-291.112 L 119.295,-291.193 L 119.277,-291.275 L 119.259,-291.357 L 119.243,-291.439 L 119.228,-291.522
 L 119.214,-291.606 L 119.201,-291.69 L 119.127,-291.672 L 119.052,-291.655 L 118.977,-291.638 L 118.902,-291.623
 L 118.827,-291.608 L 118.752,-291.594 L 118.676,-291.58 L 118.601,-291.568 L 118.525,-291.556 L 118.449,-291.545
 L 118.373,-291.535 L 118.296,-291.526 L 118.22,-291.517 L 118.143,-291.51 L 118.066,-291.503 L 117.989,-291.497
 L 117.912,-291.491 L 117.834,-291.487 L 117.757,-291.483 L 117.679,-291.481 L 117.601,-291.479 L 117.523,-291.477
 L 117.444,-291.477 L 117.307,-291.478 L 117.169,-291.481 L 117.033,-291.487 L 116.897,-291.495 L 116.763,-291.506
 L 116.629,-291.518 L 116.495,-291.533 L 116.363,-291.55 L 116.231,-291.57 L 116.1,-291.591 L 115.97,-291.615
 L 115.84,-291.642 L 115.711,-291.67 L 115.583,-291.701 L 115.456,-291.734 L 115.33,-291.77 L 115.204,-291.808
 L 115.079,-291.848 L 114.955,-291.89 L 114.832,-291.934 L 114.709,-291.981 L 114.587,-292.031 L 114.466,-292.082
 L 114.346,-292.136 L 114.227,-292.191 L 114.11,-292.247 L 113.993,-292.306 L 113.878,-292.366 L 113.765,-292.428
 L 113.653,-292.491 L 113.542,-292.556 L 113.432,-292.623 L 113.324,-292.691 L 113.217,-292.761 L 113.111,-292.833
 L 113.006,-292.906 L 112.903,-292.982 L 112.801,-293.058 L 112.701,-293.137 L 112.601,-293.217 L 112.503,-293.298
 L 112.407,-293.382 L 112.311,-293.467 L 112.217,-293.553 L 112.125,-293.642 L 112.033,-293.732 L 111.943,-293.823
 L 111.855,-293.916 L 111.768,-294.01 L 111.683,-294.106 L 111.6,-294.203 L 111.518,-294.301 L 111.438,-294.4
 L 111.36,-294.501 L 111.283,-294.603 L 111.208,-294.707 L 111.135,-294.812 L 111.063,-294.918 L 110.993,-295.026
 L 110.924,-295.135 L 110.858,-295.245 L 110.793,-295.357 L 110.729,-295.47 L 110.667,-295.584 L 110.607,-295.7
 L 110.549,-295.817 L 110.492,-295.936 L 110.437,-296.055 L 110.383,-296.176 L 110.332,-296.298 L 110.283,-296.421
 L 110.236,-296.545 L 110.191,-296.669 L 110.149,-296.794 L 110.109,-296.92 L 110.071,-297.046 L 110.036,-297.173
 L 110.003,-297.301 L 109.972,-297.43 L 109.943,-297.559 L 109.917,-297.689 L 109.893,-297.82 L 109.871,-297.951
 L 109.852,-298.084 L 109.834,-298.216 L 109.82,-298.35 L 109.807,-298.484 L 109.797,-298.619 L 109.789,-298.755
 L 109.783,-298.892 L 109.779,-299.029 L 109.778,-299.167 L 109.779,-299.305 L 109.783,-299.442 L 109.789,-299.578
 L 109.797,-299.714 L 109.807,-299.849 L 109.82,-299.983 L 109.834,-300.116 L 109.852,-300.248 L 109.871,-300.38
 L 109.893,-300.511 L 109.917,-300.642 L 109.943,-300.771 L 109.972,-300.9 L 110.003,-301.028 L 110.036,-301.155
 L 110.071,-301.281 L 110.109,-301.407 L 110.149,-301.532 L 110.191,-301.656 L 110.236,-301.78 L 110.283,-301.902
 L 110.332,-302.024 L 110.383,-302.145 L 110.437,-302.265 L 110.492,-302.384 L 110.549,-302.502 L 110.607,-302.618
 L 110.667,-302.733 L 110.729,-302.846 L 110.793,-302.959 L 110.858,-303.07 L 110.924,-303.179 L 110.993,-303.288
 L 111.063,-303.395 L 111.135,-303.501 L 111.208,-303.605 L 111.283,-303.708 L 111.36,-303.81 L 111.438,-303.911
 L 111.518,-304.01 L 111.6,-304.108 L 111.683,-304.205 L 111.768,-304.3 L 111.855,-304.394 L 111.943,-304.487
 L 112.033,-304.578 L 112.125,-304.668 L 112.217,-304.756 L 112.311,-304.843 L 112.407,-304.928 L 112.503,-305.011
 L 112.601,-305.093 L 112.701,-305.173 L 112.801,-305.252 L 112.903,-305.328 L 113.006,-305.403 L 113.111,-305.477
 L 113.217,-305.548 L 113.324,-305.618 L 113.432,-305.687 L 113.542,-305.754 L 113.653,-305.819 L 113.765,-305.882
 L 113.878,-305.944 L 113.993,-306.004 L 114.11,-306.062 L 114.227,-306.119 L 114.346,-306.174 L 114.466,-306.228
 L 114.587,-306.279 L 114.709,-306.328 L 114.832,-306.375 L 114.955,-306.42 L 115.079,-306.462 L 115.204,-306.502
 L 115.33,-306.54 L 115.456,-306.575 L 115.583,-306.609 L 115.711,-306.639 L 115.84,-306.668 L 115.97,-306.694
 L 116.1,-306.718 L 116.231,-306.74 L 116.363,-306.76 L 116.495,-306.777 L 116.629,-306.792 L 116.763,-306.804
 L 116.897,-306.814 L 117.033,-306.823 L 117.169,-306.828 L 117.307,-306.832 L 117.444,-306.833 L 131.092,-306.833
 L 131.23,-306.832 L 131.367,-306.828 L 131.504,-306.823 L 131.639,-306.814 L 131.774,-306.804 L 131.909,-306.792
 L 132.042,-306.777 L 132.175,-306.76 L 132.307,-306.74 L 132.439,-306.718 L 132.569,-306.694 L 132.699,-306.668
 L 132.829,-306.639 L 132.957,-306.609 L 133.085,-306.575 L 133.212,-306.54 L 133.339,-306.502 L 133.465,-306.462
 L 133.59,-306.42 L 133.714,-306.375 L 133.837,-306.328 L 133.96,-306.279 L 134.082,-306.228 L 134.203,-306.174
 L 134.323,-306.119 L 134.442,-306.063 L 134.559,-306.004 L 134.674,-305.944 L 134.789,-305.883 L 134.902,-305.82
 L 135.013,-305.755 L 135.124,-305.689 L 135.233,-305.621 L 135.34,-305.551 L 135.447,-305.48 L 135.552,-305.407
 L 135.655,-305.333 L 135.757,-305.257 L 135.858,-305.179 L 135.958,-305.1 L 136.056,-305.019 L 136.153,-304.936
 L 136.248,-304.852 L 136.342,-304.766 L 136.435,-304.679 L 136.527,-304.59 L 136.617,-304.5 L 136.705,-304.408
 L 136.792,-304.314 L 136.877,-304.22 L 136.96,-304.124 L 137.042,-304.026 L 137.122,-303.927 L 137.2,-303.827
 L 137.277,-303.726 L 137.352,-303.623 L 137.425,-303.518 L 137.497,-303.412 L 137.567,-303.305 L 137.635,-303.197
 L 137.702,-303.087 L 137.767,-302.975 L 137.831,-302.863 L 137.892,-302.749 L 137.953,-302.633 L 138.011,-302.516
 L 138.068,-302.398 L 138.123,-302.278 L 138.176,-302.157 L 138.228,-302.035 L 138.277,-301.912 L 138.324,-301.789
 L 138.369,-301.664 L 138.411,-301.539 L 138.451,-301.414 L 138.489,-301.287 L 138.524,-301.16 L 138.557,-301.032
 L 138.588,-300.904 L 138.617,-300.774 L 138.643,-300.644 L 138.667,-300.514 L 138.689,-300.382 L 138.709,-300.25
 L 138.726,-300.117 L 138.741,-299.983 L 138.753,-299.849 L 138.763,-299.714 L 138.771,-299.578 L 138.777,-299.442
 L 138.781,-299.305 L 138.782,-299.167 L 138.781,-299.029 L 138.777,-298.892 L 138.771,-298.755 L 138.763,-298.619
 L 138.753,-298.484 L 138.741,-298.35 L 138.726,-298.216 L 138.709,-298.084 L 138.689,-297.951 L 138.667,-297.82
 L 138.643,-297.689 L 138.617,-297.559 L 138.588,-297.43 L 138.557,-297.301 L 138.524,-297.173 L 138.489,-297.046
 L 138.451,-296.92 L 138.411,-296.794 L 138.369,-296.669 L 138.324,-296.545 L 138.277,-296.421 L 138.228,-296.298
 L 138.176,-296.176 L 138.123,-296.055 L 138.068,-295.936 L 138.011,-295.817 L 137.953,-295.7 L 137.892,-295.584
 L 137.831,-295.47 L 137.767,-295.357 L 137.702,-295.245 L 137.635,-295.135 L 137.567,-295.026 L 137.497,-294.918
 L 137.425,-294.812 L 137.352,-294.707 L 137.277,-294.603 L 137.2,-294.501 L 137.122,-294.4 L 137.042,-294.301
 L 136.96,-294.203 L 136.877,-294.106 L 136.792,-294.01 L 136.705,-293.916 L 136.617,-293.823 L 136.527,-293.732
 L 136.435,-293.642 L 136.342,-293.553 L 136.248,-293.467 L 136.153,-293.382 L 136.056,-293.298 L 135.958,-293.217
 L 135.858,-293.137 L 135.757,-293.058 L 135.655,-292.982 L 135.552,-292.906 L 135.447,-292.833 L 135.34,-292.761
 L 135.233,-292.691 L 135.124,-292.623 L 135.013,-292.556 L 134.902,-292.491 L 134.789,-292.428 L 134.674,-292.366
 L 134.559,-292.306 L 134.442,-292.247 L 134.323,-292.191 L 134.203,-292.136 L 134.082,-292.082 L 133.96,-292.031
 L 133.837,-291.981 L 133.714,-291.934 L 133.59,-291.89 L 133.465,-291.848 L 133.339,-291.808 L 133.212,-291.77
 L 133.085,-291.734 L 132.957,-291.701 L 132.829,-291.67 L 132.699,-291.642 L 132.569,-291.615 L 132.439,-291.591
 L 132.307,-291.57 L 132.175,-291.55 L 132.042,-291.533 L 131.909,-291.518 L 131.774,-291.506 L 131.639,-291.495
 L 131.504,-291.487 L 131.367,-291.481 L 131.23,-291.478 L 131.092,-291.477 L 131.016,-291.477 L 130.939,-291.479
 L 130.863,-291.481 L 130.787,-291.483 L 130.711,-291.487 L 130.635,-291.491 L 130.56,-291.497 L 130.484,-291.503
 L 130.408,-291.51 L 130.333,-291.517 L 130.257,-291.526 L 130.182,-291.535 L 130.107,-291.545 L 130.032,-291.556
 L 129.956,-291.568 L 129.882,-291.58 L 129.807,-291.594 L 129.732,-291.608 L 129.657,-291.623 L 129.582,-291.638
 L 129.508,-291.655 L 129.433,-291.672 L 129.359,-291.69 L 129.346,-291.606 L 129.332,-291.522 L 129.317,-291.439
 L 129.301,-291.357 L 129.283,-291.275 L 129.265,-291.194 L 129.245,-291.114 L 129.224,-291.034 L 129.202,-290.954
 L 129.179,-290.876 L 129.155,-290.798 L 129.13,-290.72 L 129.103,-290.643 L 129.076,-290.567 L 129.047,-290.492
 L 129.017,-290.417 L 128.986,-290.343 L 128.954,-290.269 L 128.921,-290.196 L 128.887,-290.124 L 128.852,-290.052
 L 128.815,-289.981 L 128.777,-289.91 L 128.739,-289.84 L 128.699,-289.771 L 128.659,-289.703 L 128.618,-289.636
 L 128.575,-289.569 L 128.532,-289.503 L 128.488,-289.438 L 128.443,-289.373 L 128.398,-289.31 L 128.351,-289.247
 L 128.303,-289.184 L 128.255,-289.123 L 128.205,-289.062 L 128.155,-289.003 L 128.104,-288.943 L 128.052,-288.885
 L 127.999,-288.828 L 127.945,-288.771 L 127.89,-288.715 L 127.834,-288.659 L 127.778,-288.605 L 127.72,-288.551
 L 127.662,-288.498 L 127.603,-288.446 L 127.543,-288.395 L 127.482,-288.345 L 127.421,-288.296 L 127.359,-288.248
 L 127.296,-288.201 L 127.233,-288.155 L 127.169,-288.11 L 127.104,-288.066 L 127.038,-288.023 L 126.972,-287.982
 L 126.905,-287.941 L 126.837,-287.901 L 126.768,-287.863 L 126.699,-287.825 L 126.629,-287.788 L 126.559,-287.753
 L 126.487,-287.718 L 126.415,-287.685 L 126.342,-287.652 L 126.269,-287.621 L 126.194,-287.59 L 126.119,-287.561
 L 126.044,-287.532 L 125.968,-287.505 L 125.892,-287.48 L 125.815,-287.455 L 125.738,-287.432 L 125.66,-287.41
 L 125.582,-287.389 L 125.504,-287.37 L 125.425,-287.351 L 125.346,-287.334 L 125.266,-287.319 L 125.186,-287.304
 L 125.106,-287.291 L 125.025,-287.279 L 124.944,-287.268 L 124.862,-287.259 L 124.78,-287.251 L 124.698,-287.244
 L 124.615,-287.238 L 124.532,-287.234 L 124.448,-287.231 L 124.364,-287.229 L 124.28,-287.228 z
M 131.199,-293.187 L 131.305,-293.189 L 131.411,-293.194 L 131.517,-293.2 L 131.622,-293.208 L 131.726,-293.218
 L 131.83,-293.23 L 131.933,-293.243 L 132.036,-293.258 L 132.138,-293.275 L 132.24,-293.294 L 132.341,-293.315
 L 132.441,-293.337 L 132.542,-293.361 L 132.641,-293.387 L 132.74,-293.415 L 132.838,-293.445 L 132.936,-293.476
 L 133.034,-293.509 L 133.13,-293.544 L 133.227,-293.581 L 133.322,-293.62 L 133.418,-293.66 L 133.512,-293.702
 L 133.605,-293.745 L 133.698,-293.79 L 133.789,-293.835 L 133.879,-293.882 L 133.968,-293.931 L 134.056,-293.98
 L 134.143,-294.031 L 134.229,-294.083 L 134.313,-294.136 L 134.397,-294.19 L 134.48,-294.246 L 134.561,-294.303
 L 134.641,-294.361 L 134.721,-294.421 L 134.799,-294.482 L 134.876,-294.544 L 134.952,-294.607 L 135.027,-294.671
 L 135.101,-294.737 L 135.174,-294.804 L 135.246,-294.872 L 135.316,-294.942 L 135.386,-295.013 L 135.454,-295.084
 L 135.521,-295.157 L 135.587,-295.231 L 135.652,-295.306 L 135.715,-295.382 L 135.777,-295.46 L 135.838,-295.538
 L 135.897,-295.617 L 135.955,-295.698 L 136.012,-295.779 L 136.068,-295.862 L 136.123,-295.945 L 136.176,-296.03
 L 136.228,-296.116 L 136.278,-296.203 L 136.328,-296.29 L 136.376,-296.379 L 136.423,-296.47 L 136.469,-296.561
 L 136.513,-296.653 L 136.556,-296.746 L 136.598,-296.841 L 136.639,-296.936 L 136.677,-297.032 L 136.714,-297.128
 L 136.749,-297.225 L 136.782,-297.322 L 136.813,-297.42 L 136.843,-297.519 L 136.871,-297.618 L 136.897,-297.717
 L 136.921,-297.817 L 136.944,-297.918 L 136.964,-298.019 L 136.983,-298.12 L 137,-298.223 L 137.015,-298.325
 L 137.029,-298.429 L 137.04,-298.533 L 137.05,-298.637 L 137.058,-298.742 L 137.065,-298.847 L 137.069,-298.953
 L 137.072,-299.06 L 137.073,-299.167 L 137.072,-299.274 L 137.069,-299.38 L 137.065,-299.486 L 137.058,-299.591
 L 137.05,-299.696 L 137.04,-299.8 L 137.029,-299.904 L 137.015,-300.007 L 137,-300.109 L 136.983,-300.211
 L 136.964,-300.312 L 136.944,-300.412 L 136.921,-300.513 L 136.897,-300.612 L 136.871,-300.711 L 136.843,-300.809
 L 136.813,-300.907 L 136.782,-301.004 L 136.749,-301.1 L 136.714,-301.196 L 136.677,-301.292 L 136.639,-301.386
 L 136.598,-301.481 L 136.556,-301.574 L 136.513,-301.666 L 136.468,-301.758 L 136.423,-301.848 L 136.376,-301.937
 L 136.327,-302.026 L 136.277,-302.113 L 136.226,-302.199 L 136.174,-302.284 L 136.12,-302.368 L 136.065,-302.451
 L 136.009,-302.533 L 135.952,-302.614 L 135.893,-302.694 L 135.833,-302.773 L 135.771,-302.851 L 135.708,-302.928
 L 135.644,-303.004 L 135.579,-303.079 L 135.512,-303.152 L 135.444,-303.225 L 135.375,-303.297 L 135.305,-303.367
 L 135.233,-303.437 L 135.16,-303.505 L 135.087,-303.572 L 135.012,-303.638 L 134.936,-303.703 L 134.86,-303.766
 L 134.782,-303.828 L 134.703,-303.889 L 134.624,-303.948 L 134.543,-304.006 L 134.462,-304.063 L 134.379,-304.119
 L 134.296,-304.174 L 134.211,-304.227 L 134.126,-304.279 L 134.039,-304.329 L 133.952,-304.379 L 133.863,-304.427
 L 133.774,-304.474 L 133.683,-304.52 L 133.592,-304.564 L 133.499,-304.607 L 133.406,-304.649 L 133.312,-304.69
 L 133.217,-304.728 L 133.121,-304.765 L 133.026,-304.8 L 132.929,-304.833 L 132.832,-304.865 L 132.734,-304.894
 L 132.636,-304.922 L 132.537,-304.948 L 132.438,-304.972 L 132.338,-304.995 L 132.237,-305.015 L 132.136,-305.034
 L 132.034,-305.051 L 131.932,-305.067 L 131.829,-305.08 L 131.725,-305.092 L 131.621,-305.102 L 131.517,-305.11
 L 131.411,-305.116 L 131.305,-305.121 L 131.199,-305.123 L 131.092,-305.124 L 128.671,-305.124 L 125.491,-301.374
 L 125.474,-301.354 L 125.456,-301.334 L 125.438,-301.314 L 125.419,-301.295 L 125.4,-301.276 L 125.38,-301.258
 L 125.359,-301.239 L 125.338,-301.222 L 125.316,-301.205 L 125.294,-301.188 L 125.271,-301.171 L 125.247,-301.155
 L 125.223,-301.14 L 125.198,-301.125 L 125.172,-301.11 L 125.146,-301.095 L 125.119,-301.081 L 125.091,-301.068
 L 125.063,-301.055 L 125.035,-301.042 L 125.005,-301.03 L 124.975,-301.018 L 124.945,-301.006 L 124.914,-300.995
 L 124.883,-300.984 L 124.852,-300.974 L 124.822,-300.965 L 124.792,-300.956 L 124.762,-300.947 L 124.732,-300.939
 L 124.703,-300.931 L 124.673,-300.924 L 124.644,-300.917 L 124.615,-300.911 L 124.586,-300.906 L 124.557,-300.9
 L 124.529,-300.896 L 124.5,-300.892 L 124.472,-300.888 L 124.444,-300.885 L 124.416,-300.882 L 124.389,-300.88
 L 124.361,-300.878 L 124.334,-300.877 L 124.307,-300.876 L 124.28,-300.876 L 124.253,-300.876 L 124.226,-300.877
 L 124.199,-300.878 L 124.171,-300.88 L 124.144,-300.882 L 124.116,-300.885 L 124.088,-300.888 L 124.06,-300.892
 L 124.031,-300.896 L 124.003,-300.9 L 123.974,-300.906 L 123.945,-300.911 L 123.916,-300.917 L 123.887,-300.924
 L 123.857,-300.931 L 123.828,-300.939 L 123.798,-300.947 L 123.768,-300.956 L 123.738,-300.965 L 123.707,-300.974
 L 123.677,-300.984 L 123.646,-300.995 L 123.615,-301.006 L 123.585,-301.018 L 123.555,-301.03 L 123.525,-301.042
 L 123.496,-301.055 L 123.468,-301.068 L 123.441,-301.081 L 123.414,-301.095 L 123.388,-301.11 L 123.362,-301.125
 L 123.337,-301.14 L 123.313,-301.155 L 123.289,-301.171 L 123.266,-301.188 L 123.244,-301.205 L 123.222,-301.222
 L 123.2,-301.239 L 123.18,-301.258 L 123.16,-301.276 L 123.141,-301.295 L 123.122,-301.314 L 123.104,-301.334
 L 123.086,-301.354 L 123.07,-301.374 L 119.889,-305.124 L 117.444,-305.124 L 117.337,-305.123 L 117.231,-305.121
 L 117.125,-305.116 L 117.02,-305.11 L 116.915,-305.102 L 116.811,-305.092 L 116.707,-305.08 L 116.605,-305.067
 L 116.502,-305.051 L 116.4,-305.034 L 116.299,-305.015 L 116.199,-304.995 L 116.099,-304.972 L 115.999,-304.948
 L 115.9,-304.922 L 115.802,-304.894 L 115.704,-304.865 L 115.607,-304.833 L 115.511,-304.8 L 115.415,-304.765
 L 115.319,-304.728 L 115.224,-304.69 L 115.13,-304.649 L 115.037,-304.607 L 114.944,-304.564 L 114.853,-304.52
 L 114.763,-304.474 L 114.674,-304.427 L 114.585,-304.379 L 114.498,-304.329 L 114.412,-304.279 L 114.327,-304.227
 L 114.243,-304.174 L 114.16,-304.119 L 114.078,-304.063 L 113.997,-304.006 L 113.917,-303.948 L 113.838,-303.889
 L 113.76,-303.828 L 113.683,-303.766 L 113.607,-303.703 L 113.532,-303.638 L 113.459,-303.572 L 113.386,-303.505
 L 113.314,-303.437 L 113.243,-303.367 L 113.174,-303.297 L 113.106,-303.225 L 113.039,-303.152 L 112.973,-303.079
 L 112.908,-303.004 L 112.845,-302.928 L 112.783,-302.851 L 112.722,-302.773 L 112.663,-302.694 L 112.605,-302.614
 L 112.548,-302.533 L 112.492,-302.451 L 112.437,-302.368 L 112.384,-302.284 L 112.332,-302.199 L 112.281,-302.113
 L 112.232,-302.026 L 112.184,-301.937 L 112.137,-301.848 L 112.091,-301.758 L 112.047,-301.666 L 112.004,-301.574
 L 111.962,-301.481 L 111.921,-301.386 L 111.883,-301.292 L 111.846,-301.196 L 111.811,-301.1 L 111.778,-301.004
 L 111.746,-300.907 L 111.717,-300.809 L 111.689,-300.711 L 111.663,-300.612 L 111.639,-300.513 L 111.616,-300.412
 L 111.596,-300.312 L 111.577,-300.211 L 111.56,-300.109 L 111.544,-300.007 L 111.531,-299.904 L 111.519,-299.8
 L 111.509,-299.696 L 111.501,-299.591 L 111.495,-299.486 L 111.491,-299.38 L 111.488,-299.274 L 111.487,-299.167
 L 111.488,-299.06 L 111.491,-298.953 L 111.495,-298.847 L 111.501,-298.742 L 111.509,-298.637 L 111.519,-298.533
 L 111.531,-298.43 L 111.544,-298.327 L 111.56,-298.225 L 111.577,-298.123 L 111.596,-298.022 L 111.616,-297.921
 L 111.639,-297.821 L 111.663,-297.721 L 111.689,-297.623 L 111.717,-297.524 L 111.746,-297.427 L 111.778,-297.329
 L 111.811,-297.233 L 111.846,-297.137 L 111.883,-297.042 L 111.921,-296.947 L 111.962,-296.853 L 112.004,-296.759
 L 112.047,-296.667 L 112.091,-296.575 L 112.137,-296.485 L 112.184,-296.395 L 112.232,-296.307 L 112.281,-296.219
 L 112.332,-296.133 L 112.384,-296.047 L 112.437,-295.963 L 112.492,-295.879 L 112.548,-295.797 L 112.605,-295.715
 L 112.663,-295.635 L 112.722,-295.555 L 112.783,-295.476 L 112.845,-295.399 L 112.908,-295.322 L 112.973,-295.247
 L 113.039,-295.172 L 113.106,-295.098 L 113.174,-295.026 L 113.243,-294.954 L 113.314,-294.883 L 113.386,-294.814
 L 113.459,-294.746 L 113.532,-294.679 L 113.607,-294.614 L 113.683,-294.55 L 113.76,-294.487 L 113.838,-294.426
 L 113.917,-294.366 L 113.997,-294.307 L 114.078,-294.249 L 114.16,-294.193 L 114.243,-294.138 L 114.327,-294.085
 L 114.412,-294.032 L 114.498,-293.981 L 114.585,-293.931 L 114.674,-293.883 L 114.763,-293.836 L 114.853,-293.79
 L 114.944,-293.745 L 115.037,-293.702 L 115.13,-293.66 L 115.224,-293.62 L 115.319,-293.581 L 115.415,-293.544
 L 115.511,-293.509 L 115.607,-293.476 L 115.704,-293.445 L 115.802,-293.415 L 115.9,-293.387 L 115.999,-293.361
 L 116.099,-293.337 L 116.199,-293.315 L 116.299,-293.294 L 116.4,-293.275 L 116.502,-293.258 L 116.605,-293.243
 L 116.707,-293.23 L 116.811,-293.218 L 116.915,-293.208 L 117.02,-293.2 L 117.125,-293.194 L 117.231,-293.189
 L 117.337,-293.187 L 117.444,-293.186 L 117.551,-293.187 L 117.658,-293.189 L 117.764,-293.194 L 117.869,-293.2
 L 117.974,-293.208 L 118.079,-293.218 L 118.183,-293.23 L 118.286,-293.243 L 118.389,-293.258 L 118.491,-293.275
 L 118.593,-293.294 L 118.694,-293.315 L 118.794,-293.337 L 118.894,-293.361 L 118.994,-293.387 L 119.093,-293.415
 L 119.191,-293.445 L 119.289,-293.476 L 119.386,-293.509 L 119.483,-293.544 L 119.58,-293.581 L 119.675,-293.62
 L 119.771,-293.66 L 119.865,-293.702 L 119.958,-293.745 L 120.05,-293.79 L 120.142,-293.835 L 120.232,-293.882
 L 120.321,-293.931 L 120.409,-293.98 L 120.495,-294.031 L 120.581,-294.083 L 120.666,-294.136 L 120.75,-294.19
 L 120.832,-294.246 L 120.914,-294.303 L 120.994,-294.361 L 121.073,-294.421 L 121.152,-294.482 L 121.229,-294.544
 L 121.305,-294.607 L 121.38,-294.671 L 121.454,-294.737 L 121.527,-294.804 L 121.599,-294.872 L 121.669,-294.942
 L 121.739,-295.013 L 121.807,-295.084 L 121.874,-295.157 L 121.94,-295.231 L 122.004,-295.306 L 122.068,-295.382
 L 122.13,-295.46 L 122.19,-295.538 L 122.25,-295.617 L 122.308,-295.698 L 122.365,-295.779 L 122.421,-295.862
 L 122.475,-295.945 L 122.529,-296.03 L 122.581,-296.116 L 122.631,-296.203 L 122.681,-296.29 L 122.729,-296.379
 L 122.776,-296.47 L 122.821,-296.561 L 122.866,-296.653 L 122.909,-296.746 L 122.951,-296.841 L 122.991,-296.936
 L 123.03,-297.032 L 123.067,-297.128 L 123.102,-297.225 L 123.135,-297.322 L 123.166,-297.42 L 123.196,-297.519
 L 123.224,-297.618 L 123.25,-297.717 L 123.274,-297.817 L 123.296,-297.918 L 123.317,-298.019 L 123.336,-298.12
 L 123.353,-298.223 L 123.368,-298.325 L 123.382,-298.429 L 123.393,-298.533 L 123.403,-298.637 L 123.411,-298.742
 L 123.417,-298.847 L 123.422,-298.953 L 123.425,-299.06 L 123.426,-299.167 L 125.135,-299.167 L 125.135,-299.06
 L 125.138,-298.953 L 125.142,-298.847 L 125.149,-298.742 L 125.156,-298.637 L 125.166,-298.533 L 125.177,-298.429
 L 125.191,-298.325 L 125.205,-298.223 L 125.222,-298.12 L 125.24,-298.019 L 125.261,-297.918 L 125.282,-297.817
 L 125.306,-297.717 L 125.331,-297.618 L 125.359,-297.519 L 125.387,-297.42 L 125.418,-297.322 L 125.45,-297.225
 L 125.484,-297.128 L 125.52,-297.032 L 125.558,-296.936 L 125.597,-296.841 L 125.638,-296.746 L 125.68,-296.653
 L 125.724,-296.561 L 125.769,-296.47 L 125.815,-296.379 L 125.862,-296.29 L 125.911,-296.203 L 125.961,-296.116
 L 126.012,-296.03 L 126.065,-295.945 L 126.119,-295.862 L 126.174,-295.779 L 126.23,-295.698 L 126.288,-295.617
 L 126.347,-295.538 L 126.408,-295.46 L 126.469,-295.382 L 126.532,-295.306 L 126.597,-295.231 L 126.662,-295.157
 L 126.729,-295.084 L 126.798,-295.013 L 126.867,-294.942 L 126.938,-294.872 L 127.01,-294.804 L 127.082,-294.737
 L 127.156,-294.671 L 127.231,-294.607 L 127.308,-294.544 L 127.385,-294.482 L 127.463,-294.421 L 127.542,-294.361
 L 127.623,-294.303 L 127.704,-294.246 L 127.787,-294.19 L 127.87,-294.136 L 127.955,-294.083 L 128.041,-294.031
 L 128.128,-293.98 L 128.216,-293.931 L 128.305,-293.882 L 128.395,-293.835 L 128.486,-293.79 L 128.578,-293.745
 L 128.671,-293.702 L 128.766,-293.66 L 128.861,-293.62 L 128.957,-293.581 L 129.053,-293.544 L 129.15,-293.509
 L 129.247,-293.476 L 129.345,-293.445 L 129.444,-293.415 L 129.543,-293.387 L 129.642,-293.361 L 129.742,-293.337
 L 129.843,-293.315 L 129.944,-293.294 L 130.046,-293.275 L 130.148,-293.258 L 130.25,-293.243 L 130.354,-293.23
 L 130.458,-293.218 L 130.562,-293.208 L 130.667,-293.2 L 130.772,-293.194 L 130.878,-293.189 L 130.985,-293.187
 L 131.092,-293.186 z
M 124.342,-288.914 L 124.403,-288.915 L 124.464,-288.918 L 124.525,-288.921 L 124.585,-288.926 L 124.645,-288.931
 L 124.705,-288.938 L 124.764,-288.945 L 124.823,-288.953 L 124.881,-288.963 L 124.939,-288.973 L 124.997,-288.985
 L 125.055,-288.997 L 125.112,-289.01 L 125.168,-289.025 L 125.225,-289.04 L 125.281,-289.056 L 125.336,-289.073
 L 125.392,-289.092 L 125.447,-289.111 L 125.501,-289.131 L 125.555,-289.152 L 125.609,-289.175 L 125.663,-289.198
 L 125.715,-289.222 L 125.767,-289.246 L 125.818,-289.272 L 125.869,-289.298 L 125.919,-289.325 L 125.968,-289.352
 L 126.017,-289.381 L 126.065,-289.41 L 126.112,-289.44 L 126.159,-289.471 L 126.205,-289.502 L 126.25,-289.534
 L 126.294,-289.567 L 126.338,-289.601 L 126.381,-289.636 L 126.424,-289.671 L 126.466,-289.707 L 126.507,-289.744
 L 126.548,-289.781 L 126.587,-289.82 L 126.627,-289.859 L 126.665,-289.899 L 126.703,-289.939 L 126.74,-289.98
 L 126.777,-290.022 L 126.813,-290.064 L 126.848,-290.107 L 126.883,-290.15 L 126.917,-290.194 L 126.951,-290.238
 L 126.983,-290.283 L 127.016,-290.328 L 127.047,-290.374 L 127.078,-290.42 L 127.109,-290.467 L 127.138,-290.515
 L 127.167,-290.563 L 127.196,-290.611 L 127.224,-290.661 L 127.251,-290.71 L 127.277,-290.76 L 127.303,-290.811
 L 127.329,-290.862 L 127.353,-290.914 L 127.377,-290.967 L 127.401,-291.019 L 127.423,-291.073 L 127.445,-291.126
 L 127.466,-291.18 L 127.485,-291.235 L 127.504,-291.29 L 127.523,-291.345 L 127.54,-291.4 L 127.556,-291.457
 L 127.572,-291.513 L 127.587,-291.57 L 127.601,-291.627 L 127.614,-291.685 L 127.626,-291.743 L 127.637,-291.801
 L 127.648,-291.86 L 127.658,-291.919 L 127.666,-291.979 L 127.674,-292.039 L 127.681,-292.1 L 127.688,-292.161
 L 127.693,-292.222 L 127.698,-292.284 L 127.603,-292.332 L 127.509,-292.381 L 127.416,-292.431 L 127.324,-292.483
 L 127.233,-292.536 L 127.142,-292.59 L 127.052,-292.645 L 126.963,-292.701 L 126.874,-292.758 L 126.786,-292.817
 L 126.7,-292.876 L 126.613,-292.937 L 126.528,-292.999 L 126.443,-293.063 L 126.359,-293.127 L 126.276,-293.193
 L 126.194,-293.259 L 126.112,-293.327 L 126.032,-293.396 L 125.952,-293.466 L 125.872,-293.538 L 125.794,-293.61
 L 125.716,-293.684 L 125.639,-293.759 L 125.564,-293.834 L 125.49,-293.911 L 125.417,-293.988 L 125.345,-294.067
 L 125.275,-294.146 L 125.206,-294.226 L 125.138,-294.307 L 125.072,-294.389 L 125.007,-294.472 L 124.943,-294.556
 L 124.881,-294.64 L 124.82,-294.726 L 124.76,-294.812 L 124.701,-294.9 L 124.644,-294.988 L 124.588,-295.077
 L 124.534,-295.167 L 124.48,-295.258 L 124.428,-295.35 L 124.377,-295.442 L 124.328,-295.536 L 124.28,-295.63
 L 124.232,-295.536 L 124.182,-295.442 L 124.132,-295.35 L 124.08,-295.258 L 124.026,-295.167 L 123.972,-295.077
 L 123.916,-294.988 L 123.859,-294.9 L 123.8,-294.812 L 123.74,-294.726 L 123.679,-294.64 L 123.617,-294.556
 L 123.553,-294.472 L 123.488,-294.389 L 123.422,-294.307 L 123.354,-294.226 L 123.285,-294.146 L 123.215,-294.067
 L 123.143,-293.988 L 123.071,-293.911 L 122.996,-293.834 L 122.921,-293.759 L 122.844,-293.684 L 122.766,-293.61
 L 122.688,-293.538 L 122.609,-293.466 L 122.529,-293.396 L 122.448,-293.327 L 122.366,-293.259 L 122.284,-293.193
 L 122.201,-293.127 L 122.117,-293.063 L 122.032,-292.999 L 121.947,-292.937 L 121.86,-292.876 L 121.774,-292.817
 L 121.686,-292.758 L 121.597,-292.701 L 121.508,-292.645 L 121.418,-292.59 L 121.327,-292.536 L 121.236,-292.483
 L 121.144,-292.431 L 121.051,-292.381 L 120.957,-292.332 L 120.862,-292.284 L 120.863,-292.236 L 120.864,-292.188
 L 120.866,-292.139 L 120.869,-292.09 L 120.873,-292.041 L 120.878,-291.991 L 120.884,-291.941 L 120.891,-291.89
 L 120.898,-291.838 L 120.907,-291.787 L 120.916,-291.735 L 120.927,-291.682 L 120.938,-291.629 L 120.95,-291.575
 L 120.963,-291.521 L 120.977,-291.467 L 120.992,-291.412 L 121.007,-291.357 L 121.024,-291.301 L 121.042,-291.245
 L 121.06,-291.188 L 121.079,-291.131 L 121.099,-291.073 L 121.12,-291.016 L 121.142,-290.96 L 121.165,-290.905
 L 121.188,-290.852 L 121.212,-290.799 L 121.236,-290.748 L 121.262,-290.697 L 121.288,-290.648 L 121.314,-290.6
 L 121.342,-290.554 L 121.37,-290.508 L 121.399,-290.464 L 121.429,-290.421 L 121.459,-290.379 L 121.49,-290.338
 L 121.522,-290.298 L 121.554,-290.259 L 121.587,-290.222 L 121.621,-290.186 L 121.656,-290.151 L 121.691,-290.117
 L 121.727,-290.084 L 121.764,-290.053 L 121.773,-290.03 L 121.782,-290.008 L 121.793,-289.985 L 121.804,-289.963
 L 121.816,-289.941 L 121.828,-289.92 L 121.842,-289.898 L 121.856,-289.877 L 121.871,-289.856 L 121.887,-289.835
 L 121.904,-289.814 L 121.921,-289.793 L 121.94,-289.773 L 121.959,-289.753 L 121.979,-289.732 L 122,-289.713
 L 122.021,-289.693 L 122.044,-289.673 L 122.067,-289.654 L 122.091,-289.635 L 122.116,-289.616 L 122.141,-289.597
 L 122.168,-289.578 L 122.195,-289.56 L 122.222,-289.542 L 122.25,-289.524 L 122.278,-289.506 L 122.306,-289.489
 L 122.334,-289.471 L 122.363,-289.455 L 122.392,-289.438 L 122.422,-289.422 L 122.452,-289.406 L 122.482,-289.39
 L 122.512,-289.375 L 122.543,-289.359 L 122.574,-289.344 L 122.605,-289.33 L 122.637,-289.315 L 122.669,-289.301
 L 122.701,-289.287 L 122.734,-289.274 L 122.767,-289.26 L 122.8,-289.247 L 122.834,-289.235 L 122.868,-289.222
 L 122.902,-289.21 L 122.936,-289.198 L 122.97,-289.186 L 123.004,-289.174 L 123.037,-289.163 L 123.071,-289.152
 L 123.105,-289.141 L 123.139,-289.13 L 123.172,-289.12 L 123.206,-289.11 L 123.24,-289.1 L 123.273,-289.09
 L 123.307,-289.08 L 123.34,-289.071 L 123.373,-289.062 L 123.407,-289.053 L 123.44,-289.044 L 123.473,-289.036
 L 123.507,-289.027 L 123.54,-289.019 L 123.573,-289.012 L 123.606,-289.004 L 123.639,-288.997 L 123.672,-288.99
 L 123.704,-288.983 L 123.736,-288.977 L 123.768,-288.97 L 123.799,-288.965 L 123.829,-288.959 L 123.859,-288.954
 L 123.889,-288.949 L 123.918,-288.944 L 123.947,-288.94 L 123.975,-288.936 L 124.003,-288.933 L 124.03,-288.929
 L 124.057,-288.926 L 124.084,-288.924 L 124.11,-288.921 L 124.136,-288.919 L 124.161,-288.917 L 124.185,-288.916
 L 124.21,-288.915 L 124.234,-288.914 L 124.257,-288.914 L 124.28,-288.914 z
M -2.40002,-8.89999 L 11.84,-8.89999 L 11.84,-0 L 18.96,-0 L 18.96,-8.89999 L 33.2,-8.89999
 L 33.2,-0 L 40.32,-0 L 40.32,-8.89999 L 54.56,-8.89999 L 54.56,-0 L 61.68,-0
 L 61.68,-8.89999 L 75.92,-8.89999 L 75.92,-0 L 83.04,-0 L 83.04,-8.89999 L 97.28,-8.89999
 L 97.28,-0 L 104.4,-0 L 104.4,-8.89999 L 118.64,-8.89999 L 118.64,-0 L 125.76,-0
 L 125.76,-8.89999 L 140,-8.89999 L 140,-0 L 147.12,-0 L 147.12,-8.89999 L 161.36,-8.89999
 L 161.36,-0 L 168.48,-0 L 168.48,-8.89999 L 182.72,-8.89999 L 182.72,-0 L 189.84,-0
 L 189.84,-8.89999 L 204.08,-8.89999 L 204.08,-0 L 211.2,-0 L 211.2,-8.89999 L 225.44,-8.89999
 L 225.44,-0 L 232.56,-0 L 232.56,-8.89999 L 246.8,-8.89999 L 246.8,-0 L 253.92,-0
 L 253.92,-8.89999 L 268.16,-8.89999 L 268.16,-3.0407 L 269.084,-3.51157 L 270,-4.01923 L 270.898,-4.55855
 L 271.776,-5.12886 L 272.634,-5.72948 L 273.47,-6.35966 L 274.284,-7.01866 L 275.074,-7.70564 L 275.28,-7.89781
 L 275.28,-8.89999 L 276.32,-8.89999 L 276.58,-9.16025 L 277.294,-9.92607 L 277.981,-10.7164 L 278.64,-11.5302
 L 279.271,-12.3664 L 279.871,-13.2242 L 280.441,-14.1024 L 280.981,-15 L 281.488,-15.9158 L 281.964,-16.8489
 L 282.406,-17.7979 L 282.407,-17.8 L 275.28,-17.8 L 275.28,-49.84 L 285,-49.84 L 285,-58.74
 L 275.28,-58.74 L 275.28,-67.64 L 271.72,-71.2 L 268.16,-67.64 L 268.16,-58.74 L 253.92,-58.74
 L 253.92,-67.64 L 250.36,-71.2 L 246.8,-67.64 L 246.8,-58.74 L 232.56,-58.74 L 232.56,-67.64
 L 229,-71.2 L 225.44,-67.64 L 225.44,-58.74 L 211.2,-58.74 L 211.2,-67.64 L 207.64,-71.2
 L 204.08,-67.64 L 204.08,-58.74 L 189.84,-58.74 L 189.84,-67.64 L 186.28,-71.2 L 182.72,-67.64
 L 182.72,-58.74 L 168.48,-58.74 L 168.48,-67.64 L 164.92,-71.2 L 161.36,-67.64 L 161.36,-58.74
 L 147.12,-58.74 L 147.12,-67.64 L 143.56,-71.2 L 140,-67.64 L 140,-58.74 L 125.76,-58.74
 L 125.76,-67.64 L 122.2,-71.2 L 118.64,-67.64 L 118.64,-58.74 L 104.4,-58.74 L 104.4,-67.64
 L 100.84,-71.2 L 97.28,-67.64 L 97.28,-58.74 L 83.04,-58.74 L 83.04,-67.64 L 79.48,-71.2
 L 75.92,-67.64 L 75.92,-58.74 L 61.68,-58.74 L 61.68,-67.64 L 58.12,-71.2 L 54.56,-67.64
 L 54.56,-58.74 L 40.32,-58.74 L 40.32,-67.64 L 36.76,-71.2 L 33.2,-67.64 L 33.2,-58.74
 L 18.96,-58.74 L 18.96,-67.64 L 15.4,-71.2 L 11.84,-67.64 L 11.84,-58.74 L -2.40002,-58.74
 L -2.40002,-67.64 L -5.96002,-71.2 L -9.52002,-67.64 L -9.52002,-58.74 L -23.76,-58.74 L -23.76,-67.64
 L -27.32,-71.2 L -30.88,-67.64 L -30.88,-58.74 L -38,-58.74 L -38,-49.84 L -30.88,-49.84
 L -30.88,-17.8 L -35.4072,-17.8 L -35.4064,-17.7979 L -34.9638,-16.8489 L -34.4884,-15.9158 L -33.9808,-15
 L -33.4414,-14.1024 L -32.8711,-13.2242 L -32.2705,-12.3664 L -31.6403,-11.5302 L -30.9813,-10.7164 L -30.2943,-9.92607
 L -29.5802,-9.16025 L -28.8397,-8.4198 L -28.0739,-7.70564 L -27.2836,-7.01866 L -26.4698,-6.35966 L -25.6335,-5.72948
 L -24.7758,-5.12886 L -23.8976,-4.55855 L -23.76,-4.47589 L -23.76,-8.89999 L -9.52002,-8.89999 L -9.52002,-0.0430603
 L -9.04698,-0.0182648 L -8,-0 L -2.40002,-0 z
M 253.92,-17.8 L 253.92,-49.84 L 268.16,-49.84 L 268.16,-17.8 z
M 232.56,-17.8 L 232.56,-49.84 L 246.8,-49.84 L 246.8,-17.8 z
M 211.2,-17.8 L 211.2,-49.84 L 225.44,-49.84 L 225.44,-17.8 z
M 189.84,-17.8 L 189.84,-49.84 L 204.08,-49.84 L 204.08,-17.8 z
M 168.48,-17.8 L 168.48,-49.84 L 182.72,-49.84 L 182.72,-17.8 z
M 147.12,-17.8 L 147.12,-49.84 L 161.36,-49.84 L 161.36,-17.8 z
M 125.76,-17.8 L 125.76,-49.84 L 140,-49.84 L 140,-17.8 z
M 83.04,-17.8 L 83.04,-49.84 L 97.28,-49.84 L 97.28,-17.8 z
M 61.68,-17.8 L 61.68,-49.84 L 75.92,-49.84 L 75.92,-17.8 z
M 40.32,-17.8 L 40.32,-49.84 L 54.56,-49.84 L 54.56,-17.8 z
M 18.96,-17.8 L 18.96,-49.84 L 33.2,-49.84 L 33.2,-17.8 z
M -2.40002,-17.8 L -2.40002,-49.84 L 11.84,-49.84 L 11.84,-17.8 z
M -23.76,-17.8 L -23.76,-49.84 L -9.52002,-49.84 L -9.52002,-17.8 z
M 104.4,-17.8 L 104.4,-49.84 L 118.64,-49.84 L 118.64,-17.8 z
" stroke="black" fill="lightgray" stroke-width="0.5"/>
</svg>
